<svg width="1080" height="1080" viewBox="0 0 1080 1080" fill="none" xmlns="http://www.w3.org/2000/svg">
<g clip-path="url(#clip0_1958_5262)">
<path d="M1080 0H0V1080H1080V0Z" fill="#005858"/>
<path d="M234.751 884.804L252.892 853.382C254.096 851.298 256.077 849.777 258.401 849.154C260.724 848.53 263.2 848.856 265.283 850.058L265.293 850.064L510.292 425.714L510.281 425.708C508.199 424.505 506.679 422.524 506.057 420.2C505.435 417.876 505.762 415.399 506.965 413.315L525.107 381.893C526.31 379.809 528.291 378.288 530.615 377.665C532.939 377.041 535.414 377.367 537.497 378.569L561.057 392.172L592.821 337.154L561.408 319.017L661.214 146.149L833.998 245.906L824.924 261.622L848.411 275.182C852.736 277.679 854.226 283.247 851.728 287.574L779.131 413.315C777.928 415.399 775.946 416.92 773.623 417.544C771.299 418.167 768.824 417.842 766.741 416.639L743.254 403.079L734.192 418.775L702.779 400.638L671.014 455.656L694.575 469.258C698.899 471.755 700.389 477.323 697.891 481.65L679.749 513.072C678.546 515.157 676.565 516.678 674.241 517.301C671.918 517.924 669.442 517.599 667.359 516.396L667.349 516.39L422.35 940.741L422.36 940.747C426.685 943.244 428.175 948.812 425.677 953.139L407.535 984.561C406.332 986.646 404.35 988.167 402.027 988.79C399.703 989.413 397.228 989.088 395.145 987.885L238.067 897.197C235.984 895.994 234.465 894.013 233.843 891.689C233.221 889.365 233.547 886.888 234.751 884.804ZM396.365 967.635L405.433 951.929L264.062 870.309L254.994 886.014L396.365 967.635ZM406.643 931.673L651.642 507.322L525.999 434.782L281 859.133L406.643 931.673ZM668.58 496.146L677.647 480.44L536.276 398.82L527.209 414.525L668.58 496.146ZM448.967 169.176L475.221 123.703C532.708 154.184 592.432 157.526 621.766 133.851L640.97 144.938L550.232 302.102L531.028 291.014C536.864 253.773 504.108 203.721 448.967 169.176ZM767.961 396.389L831.484 286.364L815.851 277.338L752.328 387.363L767.961 396.389ZM578.564 216.757L581.225 212.147C582.992 209.087 581.761 205.052 578.505 203.172L496.097 155.594C492.84 153.713 488.751 154.678 486.985 157.737L484.323 162.347C482.557 165.407 483.766 169.43 487.023 171.31L569.431 218.888C572.687 220.768 576.797 219.816 578.564 216.757Z" fill="#008080"/>
<path d="M231.751 879.804L249.892 848.382C251.096 846.298 253.077 844.777 255.401 844.154C257.724 843.53 260.2 843.856 262.283 845.058L262.293 845.064L507.292 420.714L507.281 420.708C505.199 419.505 503.679 417.524 503.057 415.2C502.435 412.876 502.762 410.399 503.965 408.315L522.107 376.893C523.31 374.809 525.291 373.288 527.615 372.665C529.939 372.041 532.414 372.367 534.497 373.569L558.057 387.172L589.821 332.154L558.408 314.017L658.214 141.149L830.998 240.906L821.924 256.622L845.411 270.182C849.736 272.679 851.226 278.247 848.728 282.574L776.131 408.315C774.928 410.399 772.946 411.92 770.623 412.544C768.299 413.167 765.824 412.842 763.741 411.639L740.254 398.079L731.192 413.775L699.779 395.638L668.014 450.656L691.575 464.258C695.899 466.755 697.389 472.323 694.891 476.65L676.749 508.072C675.546 510.157 673.565 511.678 671.241 512.301C668.918 512.924 666.442 512.599 664.359 511.396L664.349 511.39L419.35 935.741L419.36 935.747C423.685 938.244 425.175 943.812 422.677 948.139L404.535 979.561C403.332 981.646 401.35 983.167 399.027 983.79C396.703 984.413 394.228 984.088 392.145 982.885L235.067 892.197C232.984 890.994 231.465 889.013 230.843 886.689C230.221 884.365 230.547 881.888 231.751 879.804ZM393.365 962.635L402.433 946.929L261.062 865.309L251.994 881.014L393.365 962.635ZM403.643 926.673L648.642 502.322L522.999 429.782L278 854.133L403.643 926.673ZM665.58 491.146L674.647 475.44L533.276 393.82L524.209 409.525L665.58 491.146ZM445.967 164.176L472.221 118.703C529.708 149.184 589.432 152.526 618.766 128.851L637.97 139.938L547.232 297.102L528.028 286.014C533.864 248.773 501.108 198.721 445.967 164.176ZM764.961 391.389L828.484 281.364L812.851 272.338L749.328 382.363L764.961 391.389ZM575.564 211.757L578.225 207.147C579.992 204.087 578.761 200.052 575.505 198.172L493.097 150.594C489.84 148.713 485.751 149.678 483.985 152.737L481.323 157.347C479.557 160.407 480.766 164.43 484.023 166.31L566.431 213.888C569.687 215.768 573.797 214.816 575.564 211.757Z" fill="white"/>
<mask id="path-5-outside-1_1958_5262" maskUnits="userSpaceOnUse" x="14" y="406" width="1056" height="255" fill="black">
<rect fill="white" x="14" y="406" width="1056" height="255"/>
<path d="M54.3209 512.687C54.3209 521.339 55.2649 529.826 57.1529 538.146C58.9298 546.466 61.6507 553.898 65.3156 560.443C69.0915 566.878 73.8669 572.147 79.6419 576.251C85.5279 580.245 92.5245 582.242 100.632 582.242C108.628 582.242 115.569 580.245 121.455 576.251C127.23 572.147 132.005 566.878 135.781 560.443C139.557 553.898 142.333 546.466 144.11 538.146C145.887 529.826 146.776 521.339 146.776 512.687C146.776 503.923 145.887 495.381 144.11 487.061C142.333 478.63 139.557 471.142 135.781 464.597C132.005 458.052 127.23 452.838 121.455 448.955C115.569 444.962 108.628 442.965 100.632 442.965C92.5245 442.965 85.5279 444.962 79.6419 448.955C73.8669 452.838 69.0915 458.052 65.3156 464.597C61.6507 471.142 58.9298 478.63 57.1529 487.061C55.2649 495.381 54.3209 503.923 54.3209 512.687ZM100.632 431.15C109.627 431.15 118.401 432.87 126.952 436.309C135.503 439.859 143.111 445.073 149.774 451.95C156.438 458.828 161.824 467.37 165.933 477.576C169.931 487.782 171.93 499.485 171.93 512.687C171.93 525.333 169.931 536.704 165.933 546.799C161.824 556.894 156.438 565.435 149.774 572.424C143.111 579.413 135.503 584.738 126.952 588.399C118.401 592.059 109.627 593.89 100.632 593.89C91.525 593.89 82.696 592.17 74.1446 588.732C65.4822 585.182 57.8192 580.023 51.1558 573.256C44.4924 566.378 39.1062 557.892 34.9971 547.797C30.999 537.702 29 525.999 29 512.687C29 499.929 31.0545 488.503 35.1637 478.408C39.2728 468.313 44.659 459.771 51.3224 452.782C57.9858 445.794 65.5932 440.413 74.1446 436.642C82.696 432.981 91.525 431.15 100.632 431.15ZM252.557 574.088L258.221 580.411C255.223 584.294 251.391 587.345 246.727 589.564C241.951 591.671 236.621 592.725 230.735 592.725C222.516 592.725 216.02 590.617 211.244 586.402C206.469 582.075 204.081 575.364 204.081 566.267C204.081 563.272 204.137 560.333 204.248 557.448C204.359 554.564 204.414 550.903 204.414 546.466V492.552H184.924V482.402L205.747 479.739L211.577 448.123H225.737L224.571 480.239H255.889V492.552H224.238V563.439C224.238 569.429 225.348 573.811 227.57 576.584C229.791 579.247 232.956 580.578 237.065 580.578C241.729 580.578 246.893 578.415 252.557 574.088ZM323.023 486.728C312.806 486.728 304.976 490.888 299.534 499.208C294.093 507.528 291.372 519.62 291.372 535.483C291.372 551.125 294.093 563.05 299.534 571.259C304.976 579.358 312.806 583.407 323.023 583.407C333.129 583.407 340.903 579.358 346.345 571.259C351.787 563.05 354.507 551.125 354.507 535.483C354.507 519.62 351.787 507.528 346.345 499.208C340.903 490.888 333.129 486.728 323.023 486.728ZM323.023 476.078C329.686 476.078 336.294 477.354 342.846 479.906C349.288 482.457 354.952 486.284 359.838 491.387C364.836 496.379 368.889 502.592 371.999 510.024C375.108 517.346 376.663 525.832 376.663 535.483C376.663 545.135 375.164 553.566 372.165 560.776C369.167 568.098 365.113 574.199 360.005 579.08C355.007 583.961 349.288 587.678 342.846 590.229C336.294 592.67 329.686 593.89 323.023 593.89C316.248 593.89 309.585 592.67 303.033 590.229C296.591 587.678 290.927 583.961 286.041 579.08C281.043 574.199 277.045 568.098 274.047 560.776C270.937 553.566 269.382 545.135 269.382 535.483C269.382 525.832 270.937 517.346 274.047 510.024C277.045 502.592 281.043 496.379 286.041 491.387C291.15 486.284 296.869 482.457 303.199 479.906C309.641 477.354 316.248 476.078 323.023 476.078ZM440.132 523.336L447.129 525.832C458.901 530.27 467.175 535.317 471.95 540.975C476.725 546.632 479.113 553.122 479.113 560.443C479.113 564.77 478.169 568.93 476.281 572.923C474.393 577.028 471.561 580.633 467.785 583.739C464.009 586.846 459.234 589.286 453.459 591.061C447.795 592.947 441.243 593.89 433.802 593.89C427.139 593.89 421.141 593.169 415.811 591.727C410.369 590.285 404.705 588.01 398.819 584.904L398.153 559.445H410.98L415.478 579.413C420.919 581.965 427.194 583.24 434.302 583.24C443.186 583.24 449.794 581.576 454.125 578.248C458.457 575.031 460.622 570.705 460.622 565.269C460.622 560.277 458.79 556.339 455.125 553.455C451.46 550.459 445.907 547.575 438.466 544.802L427.805 540.808C419.254 537.702 412.424 533.598 407.315 528.495C402.095 523.503 399.485 517.29 399.485 509.858C399.485 505.309 400.485 501.039 402.484 497.045C404.372 492.94 407.093 489.335 410.647 486.229C414.089 483.123 418.365 480.682 423.474 478.907C428.471 477.021 434.08 476.078 440.299 476.078C446.74 476.078 452.515 476.911 457.624 478.575C462.732 480.128 467.841 482.457 472.949 485.563L472.117 509.359H459.956L456.458 490.722C450.905 488.059 445.463 486.728 440.132 486.728C433.025 486.728 427.638 488.281 423.973 491.387C420.309 494.383 418.476 498.487 418.476 503.701C418.476 508.36 420.031 512.076 423.141 514.85C426.361 517.512 432.025 520.341 440.132 523.336ZM589.393 560.776L595.223 563.938C592.113 573.7 586.838 581.133 579.397 586.236C572.068 591.338 562.794 593.89 551.578 593.89C543.693 593.89 536.53 592.559 530.088 589.896C523.647 587.123 518.094 583.185 513.43 578.082C508.876 572.979 505.378 566.822 502.935 559.611C500.603 552.401 499.437 544.358 499.437 535.483C499.437 526.276 500.88 518.011 503.768 510.69C506.766 503.257 510.764 496.989 515.762 491.887C520.87 486.784 526.645 482.845 533.087 480.072C539.528 477.41 546.247 476.078 553.244 476.078C558.574 476.078 563.572 476.855 568.236 478.408C573.012 479.961 577.232 482.069 580.897 484.731C584.562 487.505 587.56 490.722 589.892 494.383C592.225 498.043 593.779 502.037 594.557 506.363C593.446 512.243 589.837 515.183 583.729 515.183C579.842 515.183 577.01 514.129 575.233 512.021C573.345 509.913 572.012 507.251 571.235 504.034L567.07 488.559C564.849 487.782 562.628 487.283 560.407 487.061C558.297 486.839 556.298 486.728 554.41 486.728C544.304 486.728 536.03 490.722 529.588 498.709C523.147 506.585 519.927 518.067 519.927 533.154C519.927 548.019 523.369 559.39 530.255 567.266C537.14 575.142 546.136 579.08 557.242 579.08C563.905 579.08 570.013 577.527 575.566 574.421C581.23 571.315 585.839 566.767 589.393 560.776ZM666.355 486.728C656.138 486.728 648.308 490.888 642.866 499.208C637.425 507.528 634.704 519.62 634.704 535.483C634.704 551.125 637.425 563.05 642.866 571.259C648.308 579.358 656.138 583.407 666.355 583.407C676.461 583.407 684.235 579.358 689.677 571.259C695.119 563.05 697.84 551.125 697.84 535.483C697.84 519.62 695.119 507.528 689.677 499.208C684.235 490.888 676.461 486.728 666.355 486.728ZM666.355 476.078C673.018 476.078 679.571 477.354 686.012 479.906C692.453 482.457 698.173 486.284 703.17 491.387C708.168 496.379 712.221 502.592 715.331 510.024C718.441 517.346 719.995 525.832 719.995 535.483C719.995 545.135 718.496 553.566 715.498 560.776C712.388 568.098 708.334 574.199 703.337 579.08C698.228 583.961 692.453 587.678 686.012 590.229C679.571 592.67 673.018 593.89 666.355 593.89C659.469 593.89 652.806 592.67 646.365 590.229C639.923 587.678 634.204 583.961 629.206 579.08C624.32 574.199 620.322 568.098 617.212 560.776C614.214 553.566 612.714 545.135 612.714 535.483C612.714 525.832 614.214 517.346 617.212 510.024C620.322 502.592 624.375 496.379 629.373 491.387C634.482 486.284 640.201 482.457 646.531 479.906C652.861 477.354 659.469 476.078 666.355 476.078ZM774.968 502.203V568.763C783.52 576.64 792.182 580.578 800.956 580.578C805.287 580.578 809.34 579.69 813.116 577.915C817.003 576.03 820.391 573.201 823.278 569.429C826.055 565.768 828.276 561.109 829.942 555.451C831.607 549.905 832.44 543.415 832.44 535.983C832.44 520.896 829.719 509.359 824.278 501.371C818.836 493.384 811.839 489.391 803.288 489.391C799.734 489.391 795.625 490.278 790.961 492.053C786.296 493.828 780.965 497.211 774.968 502.203ZM772.303 478.408L773.636 493.551C784.408 481.903 796.125 476.078 808.785 476.078C815.004 476.078 820.835 477.41 826.277 480.072C831.718 482.624 836.438 486.451 840.436 491.554C844.434 496.546 847.6 502.647 849.932 509.858C852.264 516.958 853.43 525 853.43 533.986C853.43 543.082 852.208 551.291 849.765 558.613C847.322 566.046 843.99 572.369 839.77 577.583C835.439 582.686 830.33 586.679 824.444 589.564C818.558 592.448 812.172 593.89 805.287 593.89C799.845 593.89 794.57 592.836 789.461 590.728C784.353 588.51 779.3 584.516 774.302 578.747V596.885C774.302 602.986 774.358 609.199 774.469 615.522C774.58 621.734 774.691 627.946 774.802 634.159L795.958 637.653V645.807H736.154V637.653L754.812 634.492C754.923 628.057 755.034 621.734 755.145 615.522C755.145 609.31 755.145 603.097 755.145 596.885V529.659C755.145 523.225 755.089 517.956 754.978 513.851C754.867 509.636 754.701 505.199 754.478 500.539L736.321 498.376V490.223L768.805 476.078L772.303 478.408ZM899.574 451.118C895.021 451.118 891.3 449.732 888.413 446.958C885.414 444.185 883.915 440.524 883.915 435.976C883.915 431.428 885.414 427.822 888.413 425.16C891.3 422.387 895.021 421 899.574 421C904.127 421 907.848 422.387 910.735 425.16C913.734 427.822 915.233 431.428 915.233 435.976C915.233 440.524 913.734 444.185 910.735 446.958C907.848 449.732 904.127 451.118 899.574 451.118ZM910.069 578.747L926.228 582.075V590.396H872.088V582.075L889.579 578.747C889.69 572.868 889.801 566.489 889.912 559.611C890.023 552.623 890.079 546.577 890.079 541.474V529.826C890.079 523.503 889.968 518.178 889.746 513.851C889.635 509.636 889.468 505.199 889.246 500.539L870.922 498.376V490.223L906.737 476.078L910.236 478.408L909.569 510.024V541.474C909.569 546.577 909.625 552.623 909.736 559.611C909.847 566.489 909.958 572.868 910.069 578.747ZM1009.02 565.935V530.159C1004.91 531.157 1000.97 532.322 997.193 533.653C993.417 534.873 990.252 535.927 987.698 536.815C982.589 538.811 978.536 540.864 975.537 542.971C972.427 545.079 970.095 547.131 968.54 549.128C966.986 551.236 965.986 553.288 965.542 555.285C965.098 557.282 964.876 559.112 964.876 560.776C964.876 563.882 965.32 566.378 966.208 568.264C966.986 570.15 968.041 571.814 969.373 573.256C972.927 576.806 977.647 578.581 983.533 578.581C985.421 578.581 987.198 578.359 988.864 577.915C990.641 577.583 992.418 576.917 994.195 575.919C996.082 574.92 998.193 573.589 1000.52 571.925C1002.86 570.261 1005.69 568.264 1009.02 565.935ZM1046.34 575.253L1051 580.411C1048.33 585.403 1045.45 588.732 1042.34 590.396C1039.23 591.949 1035.79 592.725 1032.01 592.725C1025.46 592.725 1020.35 591.172 1016.68 588.066C1012.91 584.849 1010.46 580.578 1009.35 575.253C1006.24 578.359 1003.41 581.077 1000.86 583.407C998.193 585.736 995.527 587.678 992.862 589.231C990.196 590.784 987.476 591.949 984.699 592.725C981.923 593.502 978.813 593.89 975.37 593.89C971.15 593.89 967.152 593.28 963.376 592.06C959.6 590.839 956.269 588.953 953.381 586.402C950.494 583.961 948.217 580.911 946.551 577.25C944.885 573.589 944.052 569.374 944.052 564.603C944.052 561.275 944.608 558.058 945.718 554.952C946.829 551.846 948.772 548.906 951.549 546.133C954.325 543.249 958.268 540.364 963.376 537.48C968.374 534.596 974.871 531.767 982.867 528.994C986.421 527.663 990.474 526.387 995.027 525.167C999.692 523.835 1004.36 522.504 1009.02 521.173V515.016C1009.02 509.359 1008.58 504.699 1007.69 501.039C1006.8 497.378 1005.52 494.493 1003.86 492.386C1002.08 490.389 999.858 488.947 997.193 488.059C994.417 487.172 991.085 486.728 987.198 486.728C985.532 486.728 983.7 486.839 981.701 487.061C979.813 487.172 977.703 487.449 975.37 487.893L970.706 504.2C968.485 511.633 964.265 515.349 958.046 515.349C954.825 515.349 952.271 514.462 950.383 512.687C948.495 510.912 947.44 508.471 947.217 505.365C949.328 496.49 954.436 489.391 962.543 484.066C970.651 478.741 980.701 476.078 992.695 476.078C1004.91 476.078 1013.96 479.185 1019.85 485.397C1025.85 491.609 1028.84 502.148 1028.84 517.013V566.933C1028.84 576.03 1031.4 580.578 1036.51 580.578C1038.4 580.578 1040.01 580.19 1041.34 579.413C1042.78 578.526 1044.06 577.638 1045.17 576.751L1046.34 575.253Z"/>
</mask>
<path d="M54.3209 512.687C54.3209 521.339 55.2649 529.826 57.1529 538.146C58.9298 546.466 61.6507 553.898 65.3156 560.443C69.0915 566.878 73.8669 572.147 79.6419 576.251C85.5279 580.245 92.5245 582.242 100.632 582.242C108.628 582.242 115.569 580.245 121.455 576.251C127.23 572.147 132.005 566.878 135.781 560.443C139.557 553.898 142.333 546.466 144.11 538.146C145.887 529.826 146.776 521.339 146.776 512.687C146.776 503.923 145.887 495.381 144.11 487.061C142.333 478.63 139.557 471.142 135.781 464.597C132.005 458.052 127.23 452.838 121.455 448.955C115.569 444.962 108.628 442.965 100.632 442.965C92.5245 442.965 85.5279 444.962 79.6419 448.955C73.8669 452.838 69.0915 458.052 65.3156 464.597C61.6507 471.142 58.9298 478.63 57.1529 487.061C55.2649 495.381 54.3209 503.923 54.3209 512.687ZM100.632 431.15C109.627 431.15 118.401 432.87 126.952 436.309C135.503 439.859 143.111 445.073 149.774 451.95C156.438 458.828 161.824 467.37 165.933 477.576C169.931 487.782 171.93 499.485 171.93 512.687C171.93 525.333 169.931 536.704 165.933 546.799C161.824 556.894 156.438 565.435 149.774 572.424C143.111 579.413 135.503 584.738 126.952 588.399C118.401 592.059 109.627 593.89 100.632 593.89C91.525 593.89 82.696 592.17 74.1446 588.732C65.4822 585.182 57.8192 580.023 51.1558 573.256C44.4924 566.378 39.1062 557.892 34.9971 547.797C30.999 537.702 29 525.999 29 512.687C29 499.929 31.0545 488.503 35.1637 478.408C39.2728 468.313 44.659 459.771 51.3224 452.782C57.9858 445.794 65.5932 440.413 74.1446 436.642C82.696 432.981 91.525 431.15 100.632 431.15ZM252.557 574.088L258.221 580.411C255.223 584.294 251.391 587.345 246.727 589.564C241.951 591.671 236.621 592.725 230.735 592.725C222.516 592.725 216.02 590.617 211.244 586.402C206.469 582.075 204.081 575.364 204.081 566.267C204.081 563.272 204.137 560.333 204.248 557.448C204.359 554.564 204.414 550.903 204.414 546.466V492.552H184.924V482.402L205.747 479.739L211.577 448.123H225.737L224.571 480.239H255.889V492.552H224.238V563.439C224.238 569.429 225.348 573.811 227.57 576.584C229.791 579.247 232.956 580.578 237.065 580.578C241.729 580.578 246.893 578.415 252.557 574.088ZM323.023 486.728C312.806 486.728 304.976 490.888 299.534 499.208C294.093 507.528 291.372 519.62 291.372 535.483C291.372 551.125 294.093 563.05 299.534 571.259C304.976 579.358 312.806 583.407 323.023 583.407C333.129 583.407 340.903 579.358 346.345 571.259C351.787 563.05 354.507 551.125 354.507 535.483C354.507 519.62 351.787 507.528 346.345 499.208C340.903 490.888 333.129 486.728 323.023 486.728ZM323.023 476.078C329.686 476.078 336.294 477.354 342.846 479.906C349.288 482.457 354.952 486.284 359.838 491.387C364.836 496.379 368.889 502.592 371.999 510.024C375.108 517.346 376.663 525.832 376.663 535.483C376.663 545.135 375.164 553.566 372.165 560.776C369.167 568.098 365.113 574.199 360.005 579.08C355.007 583.961 349.288 587.678 342.846 590.229C336.294 592.67 329.686 593.89 323.023 593.89C316.248 593.89 309.585 592.67 303.033 590.229C296.591 587.678 290.927 583.961 286.041 579.08C281.043 574.199 277.045 568.098 274.047 560.776C270.937 553.566 269.382 545.135 269.382 535.483C269.382 525.832 270.937 517.346 274.047 510.024C277.045 502.592 281.043 496.379 286.041 491.387C291.15 486.284 296.869 482.457 303.199 479.906C309.641 477.354 316.248 476.078 323.023 476.078ZM440.132 523.336L447.129 525.832C458.901 530.27 467.175 535.317 471.95 540.975C476.725 546.632 479.113 553.122 479.113 560.443C479.113 564.77 478.169 568.93 476.281 572.923C474.393 577.028 471.561 580.633 467.785 583.739C464.009 586.846 459.234 589.286 453.459 591.061C447.795 592.947 441.243 593.89 433.802 593.89C427.139 593.89 421.141 593.169 415.811 591.727C410.369 590.285 404.705 588.01 398.819 584.904L398.153 559.445H410.98L415.478 579.413C420.919 581.965 427.194 583.24 434.302 583.24C443.186 583.24 449.794 581.576 454.125 578.248C458.457 575.031 460.622 570.705 460.622 565.269C460.622 560.277 458.79 556.339 455.125 553.455C451.46 550.459 445.907 547.575 438.466 544.802L427.805 540.808C419.254 537.702 412.424 533.598 407.315 528.495C402.095 523.503 399.485 517.29 399.485 509.858C399.485 505.309 400.485 501.039 402.484 497.045C404.372 492.94 407.093 489.335 410.647 486.229C414.089 483.123 418.365 480.682 423.474 478.907C428.471 477.021 434.08 476.078 440.299 476.078C446.74 476.078 452.515 476.911 457.624 478.575C462.732 480.128 467.841 482.457 472.949 485.563L472.117 509.359H459.956L456.458 490.722C450.905 488.059 445.463 486.728 440.132 486.728C433.025 486.728 427.638 488.281 423.973 491.387C420.309 494.383 418.476 498.487 418.476 503.701C418.476 508.36 420.031 512.076 423.141 514.85C426.361 517.512 432.025 520.341 440.132 523.336ZM589.393 560.776L595.223 563.938C592.113 573.7 586.838 581.133 579.397 586.236C572.068 591.338 562.794 593.89 551.578 593.89C543.693 593.89 536.53 592.559 530.088 589.896C523.647 587.123 518.094 583.185 513.43 578.082C508.876 572.979 505.378 566.822 502.935 559.611C500.603 552.401 499.437 544.358 499.437 535.483C499.437 526.276 500.88 518.011 503.768 510.69C506.766 503.257 510.764 496.989 515.762 491.887C520.87 486.784 526.645 482.845 533.087 480.072C539.528 477.41 546.247 476.078 553.244 476.078C558.574 476.078 563.572 476.855 568.236 478.408C573.012 479.961 577.232 482.069 580.897 484.731C584.562 487.505 587.56 490.722 589.892 494.383C592.225 498.043 593.779 502.037 594.557 506.363C593.446 512.243 589.837 515.183 583.729 515.183C579.842 515.183 577.01 514.129 575.233 512.021C573.345 509.913 572.012 507.251 571.235 504.034L567.07 488.559C564.849 487.782 562.628 487.283 560.407 487.061C558.297 486.839 556.298 486.728 554.41 486.728C544.304 486.728 536.03 490.722 529.588 498.709C523.147 506.585 519.927 518.067 519.927 533.154C519.927 548.019 523.369 559.39 530.255 567.266C537.14 575.142 546.136 579.08 557.242 579.08C563.905 579.08 570.013 577.527 575.566 574.421C581.23 571.315 585.839 566.767 589.393 560.776ZM666.355 486.728C656.138 486.728 648.308 490.888 642.866 499.208C637.425 507.528 634.704 519.62 634.704 535.483C634.704 551.125 637.425 563.05 642.866 571.259C648.308 579.358 656.138 583.407 666.355 583.407C676.461 583.407 684.235 579.358 689.677 571.259C695.119 563.05 697.84 551.125 697.84 535.483C697.84 519.62 695.119 507.528 689.677 499.208C684.235 490.888 676.461 486.728 666.355 486.728ZM666.355 476.078C673.018 476.078 679.571 477.354 686.012 479.906C692.453 482.457 698.173 486.284 703.17 491.387C708.168 496.379 712.221 502.592 715.331 510.024C718.441 517.346 719.995 525.832 719.995 535.483C719.995 545.135 718.496 553.566 715.498 560.776C712.388 568.098 708.334 574.199 703.337 579.08C698.228 583.961 692.453 587.678 686.012 590.229C679.571 592.67 673.018 593.89 666.355 593.89C659.469 593.89 652.806 592.67 646.365 590.229C639.923 587.678 634.204 583.961 629.206 579.08C624.32 574.199 620.322 568.098 617.212 560.776C614.214 553.566 612.714 545.135 612.714 535.483C612.714 525.832 614.214 517.346 617.212 510.024C620.322 502.592 624.375 496.379 629.373 491.387C634.482 486.284 640.201 482.457 646.531 479.906C652.861 477.354 659.469 476.078 666.355 476.078ZM774.968 502.203V568.763C783.52 576.64 792.182 580.578 800.956 580.578C805.287 580.578 809.34 579.69 813.116 577.915C817.003 576.03 820.391 573.201 823.278 569.429C826.055 565.768 828.276 561.109 829.942 555.451C831.607 549.905 832.44 543.415 832.44 535.983C832.44 520.896 829.719 509.359 824.278 501.371C818.836 493.384 811.839 489.391 803.288 489.391C799.734 489.391 795.625 490.278 790.961 492.053C786.296 493.828 780.965 497.211 774.968 502.203ZM772.303 478.408L773.636 493.551C784.408 481.903 796.125 476.078 808.785 476.078C815.004 476.078 820.835 477.41 826.277 480.072C831.718 482.624 836.438 486.451 840.436 491.554C844.434 496.546 847.6 502.647 849.932 509.858C852.264 516.958 853.43 525 853.43 533.986C853.43 543.082 852.208 551.291 849.765 558.613C847.322 566.046 843.99 572.369 839.77 577.583C835.439 582.686 830.33 586.679 824.444 589.564C818.558 592.448 812.172 593.89 805.287 593.89C799.845 593.89 794.57 592.836 789.461 590.728C784.353 588.51 779.3 584.516 774.302 578.747V596.885C774.302 602.986 774.358 609.199 774.469 615.522C774.58 621.734 774.691 627.946 774.802 634.159L795.958 637.653V645.807H736.154V637.653L754.812 634.492C754.923 628.057 755.034 621.734 755.145 615.522C755.145 609.31 755.145 603.097 755.145 596.885V529.659C755.145 523.225 755.089 517.956 754.978 513.851C754.867 509.636 754.701 505.199 754.478 500.539L736.321 498.376V490.223L768.805 476.078L772.303 478.408ZM899.574 451.118C895.021 451.118 891.3 449.732 888.413 446.958C885.414 444.185 883.915 440.524 883.915 435.976C883.915 431.428 885.414 427.822 888.413 425.16C891.3 422.387 895.021 421 899.574 421C904.127 421 907.848 422.387 910.735 425.16C913.734 427.822 915.233 431.428 915.233 435.976C915.233 440.524 913.734 444.185 910.735 446.958C907.848 449.732 904.127 451.118 899.574 451.118ZM910.069 578.747L926.228 582.075V590.396H872.088V582.075L889.579 578.747C889.69 572.868 889.801 566.489 889.912 559.611C890.023 552.623 890.079 546.577 890.079 541.474V529.826C890.079 523.503 889.968 518.178 889.746 513.851C889.635 509.636 889.468 505.199 889.246 500.539L870.922 498.376V490.223L906.737 476.078L910.236 478.408L909.569 510.024V541.474C909.569 546.577 909.625 552.623 909.736 559.611C909.847 566.489 909.958 572.868 910.069 578.747ZM1009.02 565.935V530.159C1004.91 531.157 1000.97 532.322 997.193 533.653C993.417 534.873 990.252 535.927 987.698 536.815C982.589 538.811 978.536 540.864 975.537 542.971C972.427 545.079 970.095 547.131 968.54 549.128C966.986 551.236 965.986 553.288 965.542 555.285C965.098 557.282 964.876 559.112 964.876 560.776C964.876 563.882 965.32 566.378 966.208 568.264C966.986 570.15 968.041 571.814 969.373 573.256C972.927 576.806 977.647 578.581 983.533 578.581C985.421 578.581 987.198 578.359 988.864 577.915C990.641 577.583 992.418 576.917 994.195 575.919C996.082 574.92 998.193 573.589 1000.52 571.925C1002.86 570.261 1005.69 568.264 1009.02 565.935ZM1046.34 575.253L1051 580.411C1048.33 585.403 1045.45 588.732 1042.34 590.396C1039.23 591.949 1035.79 592.725 1032.01 592.725C1025.46 592.725 1020.35 591.172 1016.68 588.066C1012.91 584.849 1010.46 580.578 1009.35 575.253C1006.24 578.359 1003.41 581.077 1000.86 583.407C998.193 585.736 995.527 587.678 992.862 589.231C990.196 590.784 987.476 591.949 984.699 592.725C981.923 593.502 978.813 593.89 975.37 593.89C971.15 593.89 967.152 593.28 963.376 592.06C959.6 590.839 956.269 588.953 953.381 586.402C950.494 583.961 948.217 580.911 946.551 577.25C944.885 573.589 944.052 569.374 944.052 564.603C944.052 561.275 944.608 558.058 945.718 554.952C946.829 551.846 948.772 548.906 951.549 546.133C954.325 543.249 958.268 540.364 963.376 537.48C968.374 534.596 974.871 531.767 982.867 528.994C986.421 527.663 990.474 526.387 995.027 525.167C999.692 523.835 1004.36 522.504 1009.02 521.173V515.016C1009.02 509.359 1008.58 504.699 1007.69 501.039C1006.8 497.378 1005.52 494.493 1003.86 492.386C1002.08 490.389 999.858 488.947 997.193 488.059C994.417 487.172 991.085 486.728 987.198 486.728C985.532 486.728 983.7 486.839 981.701 487.061C979.813 487.172 977.703 487.449 975.37 487.893L970.706 504.2C968.485 511.633 964.265 515.349 958.046 515.349C954.825 515.349 952.271 514.462 950.383 512.687C948.495 510.912 947.44 508.471 947.217 505.365C949.328 496.49 954.436 489.391 962.543 484.066C970.651 478.741 980.701 476.078 992.695 476.078C1004.91 476.078 1013.96 479.185 1019.85 485.397C1025.85 491.609 1028.84 502.148 1028.84 517.013V566.933C1028.84 576.03 1031.4 580.578 1036.51 580.578C1038.4 580.578 1040.01 580.19 1041.34 579.413C1042.78 578.526 1044.06 577.638 1045.17 576.751L1046.34 575.253Z" fill="#008080"/>
<path d="M54.3209 512.687C54.3209 521.339 55.2649 529.826 57.1529 538.146C58.9298 546.466 61.6507 553.898 65.3156 560.443C69.0915 566.878 73.8669 572.147 79.6419 576.251C85.5279 580.245 92.5245 582.242 100.632 582.242C108.628 582.242 115.569 580.245 121.455 576.251C127.23 572.147 132.005 566.878 135.781 560.443C139.557 553.898 142.333 546.466 144.11 538.146C145.887 529.826 146.776 521.339 146.776 512.687C146.776 503.923 145.887 495.381 144.11 487.061C142.333 478.63 139.557 471.142 135.781 464.597C132.005 458.052 127.23 452.838 121.455 448.955C115.569 444.962 108.628 442.965 100.632 442.965C92.5245 442.965 85.5279 444.962 79.6419 448.955C73.8669 452.838 69.0915 458.052 65.3156 464.597C61.6507 471.142 58.9298 478.63 57.1529 487.061C55.2649 495.381 54.3209 503.923 54.3209 512.687ZM100.632 431.15C109.627 431.15 118.401 432.87 126.952 436.309C135.503 439.859 143.111 445.073 149.774 451.95C156.438 458.828 161.824 467.37 165.933 477.576C169.931 487.782 171.93 499.485 171.93 512.687C171.93 525.333 169.931 536.704 165.933 546.799C161.824 556.894 156.438 565.435 149.774 572.424C143.111 579.413 135.503 584.738 126.952 588.399C118.401 592.059 109.627 593.89 100.632 593.89C91.525 593.89 82.696 592.17 74.1446 588.732C65.4822 585.182 57.8192 580.023 51.1558 573.256C44.4924 566.378 39.1062 557.892 34.9971 547.797C30.999 537.702 29 525.999 29 512.687C29 499.929 31.0545 488.503 35.1637 478.408C39.2728 468.313 44.659 459.771 51.3224 452.782C57.9858 445.794 65.5932 440.413 74.1446 436.642C82.696 432.981 91.525 431.15 100.632 431.15ZM252.557 574.088L258.221 580.411C255.223 584.294 251.391 587.345 246.727 589.564C241.951 591.671 236.621 592.725 230.735 592.725C222.516 592.725 216.02 590.617 211.244 586.402C206.469 582.075 204.081 575.364 204.081 566.267C204.081 563.272 204.137 560.333 204.248 557.448C204.359 554.564 204.414 550.903 204.414 546.466V492.552H184.924V482.402L205.747 479.739L211.577 448.123H225.737L224.571 480.239H255.889V492.552H224.238V563.439C224.238 569.429 225.348 573.811 227.57 576.584C229.791 579.247 232.956 580.578 237.065 580.578C241.729 580.578 246.893 578.415 252.557 574.088ZM323.023 486.728C312.806 486.728 304.976 490.888 299.534 499.208C294.093 507.528 291.372 519.62 291.372 535.483C291.372 551.125 294.093 563.05 299.534 571.259C304.976 579.358 312.806 583.407 323.023 583.407C333.129 583.407 340.903 579.358 346.345 571.259C351.787 563.05 354.507 551.125 354.507 535.483C354.507 519.62 351.787 507.528 346.345 499.208C340.903 490.888 333.129 486.728 323.023 486.728ZM323.023 476.078C329.686 476.078 336.294 477.354 342.846 479.906C349.288 482.457 354.952 486.284 359.838 491.387C364.836 496.379 368.889 502.592 371.999 510.024C375.108 517.346 376.663 525.832 376.663 535.483C376.663 545.135 375.164 553.566 372.165 560.776C369.167 568.098 365.113 574.199 360.005 579.08C355.007 583.961 349.288 587.678 342.846 590.229C336.294 592.67 329.686 593.89 323.023 593.89C316.248 593.89 309.585 592.67 303.033 590.229C296.591 587.678 290.927 583.961 286.041 579.08C281.043 574.199 277.045 568.098 274.047 560.776C270.937 553.566 269.382 545.135 269.382 535.483C269.382 525.832 270.937 517.346 274.047 510.024C277.045 502.592 281.043 496.379 286.041 491.387C291.15 486.284 296.869 482.457 303.199 479.906C309.641 477.354 316.248 476.078 323.023 476.078ZM440.132 523.336L447.129 525.832C458.901 530.27 467.175 535.317 471.95 540.975C476.725 546.632 479.113 553.122 479.113 560.443C479.113 564.77 478.169 568.93 476.281 572.923C474.393 577.028 471.561 580.633 467.785 583.739C464.009 586.846 459.234 589.286 453.459 591.061C447.795 592.947 441.243 593.89 433.802 593.89C427.139 593.89 421.141 593.169 415.811 591.727C410.369 590.285 404.705 588.01 398.819 584.904L398.153 559.445H410.98L415.478 579.413C420.919 581.965 427.194 583.24 434.302 583.24C443.186 583.24 449.794 581.576 454.125 578.248C458.457 575.031 460.622 570.705 460.622 565.269C460.622 560.277 458.79 556.339 455.125 553.455C451.46 550.459 445.907 547.575 438.466 544.802L427.805 540.808C419.254 537.702 412.424 533.598 407.315 528.495C402.095 523.503 399.485 517.29 399.485 509.858C399.485 505.309 400.485 501.039 402.484 497.045C404.372 492.94 407.093 489.335 410.647 486.229C414.089 483.123 418.365 480.682 423.474 478.907C428.471 477.021 434.08 476.078 440.299 476.078C446.74 476.078 452.515 476.911 457.624 478.575C462.732 480.128 467.841 482.457 472.949 485.563L472.117 509.359H459.956L456.458 490.722C450.905 488.059 445.463 486.728 440.132 486.728C433.025 486.728 427.638 488.281 423.973 491.387C420.309 494.383 418.476 498.487 418.476 503.701C418.476 508.36 420.031 512.076 423.141 514.85C426.361 517.512 432.025 520.341 440.132 523.336ZM589.393 560.776L595.223 563.938C592.113 573.7 586.838 581.133 579.397 586.236C572.068 591.338 562.794 593.89 551.578 593.89C543.693 593.89 536.53 592.559 530.088 589.896C523.647 587.123 518.094 583.185 513.43 578.082C508.876 572.979 505.378 566.822 502.935 559.611C500.603 552.401 499.437 544.358 499.437 535.483C499.437 526.276 500.88 518.011 503.768 510.69C506.766 503.257 510.764 496.989 515.762 491.887C520.87 486.784 526.645 482.845 533.087 480.072C539.528 477.41 546.247 476.078 553.244 476.078C558.574 476.078 563.572 476.855 568.236 478.408C573.012 479.961 577.232 482.069 580.897 484.731C584.562 487.505 587.56 490.722 589.892 494.383C592.225 498.043 593.779 502.037 594.557 506.363C593.446 512.243 589.837 515.183 583.729 515.183C579.842 515.183 577.01 514.129 575.233 512.021C573.345 509.913 572.012 507.251 571.235 504.034L567.07 488.559C564.849 487.782 562.628 487.283 560.407 487.061C558.297 486.839 556.298 486.728 554.41 486.728C544.304 486.728 536.03 490.722 529.588 498.709C523.147 506.585 519.927 518.067 519.927 533.154C519.927 548.019 523.369 559.39 530.255 567.266C537.14 575.142 546.136 579.08 557.242 579.08C563.905 579.08 570.013 577.527 575.566 574.421C581.23 571.315 585.839 566.767 589.393 560.776ZM666.355 486.728C656.138 486.728 648.308 490.888 642.866 499.208C637.425 507.528 634.704 519.62 634.704 535.483C634.704 551.125 637.425 563.05 642.866 571.259C648.308 579.358 656.138 583.407 666.355 583.407C676.461 583.407 684.235 579.358 689.677 571.259C695.119 563.05 697.84 551.125 697.84 535.483C697.84 519.62 695.119 507.528 689.677 499.208C684.235 490.888 676.461 486.728 666.355 486.728ZM666.355 476.078C673.018 476.078 679.571 477.354 686.012 479.906C692.453 482.457 698.173 486.284 703.17 491.387C708.168 496.379 712.221 502.592 715.331 510.024C718.441 517.346 719.995 525.832 719.995 535.483C719.995 545.135 718.496 553.566 715.498 560.776C712.388 568.098 708.334 574.199 703.337 579.08C698.228 583.961 692.453 587.678 686.012 590.229C679.571 592.67 673.018 593.89 666.355 593.89C659.469 593.89 652.806 592.67 646.365 590.229C639.923 587.678 634.204 583.961 629.206 579.08C624.32 574.199 620.322 568.098 617.212 560.776C614.214 553.566 612.714 545.135 612.714 535.483C612.714 525.832 614.214 517.346 617.212 510.024C620.322 502.592 624.375 496.379 629.373 491.387C634.482 486.284 640.201 482.457 646.531 479.906C652.861 477.354 659.469 476.078 666.355 476.078ZM774.968 502.203V568.763C783.52 576.64 792.182 580.578 800.956 580.578C805.287 580.578 809.34 579.69 813.116 577.915C817.003 576.03 820.391 573.201 823.278 569.429C826.055 565.768 828.276 561.109 829.942 555.451C831.607 549.905 832.44 543.415 832.44 535.983C832.44 520.896 829.719 509.359 824.278 501.371C818.836 493.384 811.839 489.391 803.288 489.391C799.734 489.391 795.625 490.278 790.961 492.053C786.296 493.828 780.965 497.211 774.968 502.203ZM772.303 478.408L773.636 493.551C784.408 481.903 796.125 476.078 808.785 476.078C815.004 476.078 820.835 477.41 826.277 480.072C831.718 482.624 836.438 486.451 840.436 491.554C844.434 496.546 847.6 502.647 849.932 509.858C852.264 516.958 853.43 525 853.43 533.986C853.43 543.082 852.208 551.291 849.765 558.613C847.322 566.046 843.99 572.369 839.77 577.583C835.439 582.686 830.33 586.679 824.444 589.564C818.558 592.448 812.172 593.89 805.287 593.89C799.845 593.89 794.57 592.836 789.461 590.728C784.353 588.51 779.3 584.516 774.302 578.747V596.885C774.302 602.986 774.358 609.199 774.469 615.522C774.58 621.734 774.691 627.946 774.802 634.159L795.958 637.653V645.807H736.154V637.653L754.812 634.492C754.923 628.057 755.034 621.734 755.145 615.522C755.145 609.31 755.145 603.097 755.145 596.885V529.659C755.145 523.225 755.089 517.956 754.978 513.851C754.867 509.636 754.701 505.199 754.478 500.539L736.321 498.376V490.223L768.805 476.078L772.303 478.408ZM899.574 451.118C895.021 451.118 891.3 449.732 888.413 446.958C885.414 444.185 883.915 440.524 883.915 435.976C883.915 431.428 885.414 427.822 888.413 425.16C891.3 422.387 895.021 421 899.574 421C904.127 421 907.848 422.387 910.735 425.16C913.734 427.822 915.233 431.428 915.233 435.976C915.233 440.524 913.734 444.185 910.735 446.958C907.848 449.732 904.127 451.118 899.574 451.118ZM910.069 578.747L926.228 582.075V590.396H872.088V582.075L889.579 578.747C889.69 572.868 889.801 566.489 889.912 559.611C890.023 552.623 890.079 546.577 890.079 541.474V529.826C890.079 523.503 889.968 518.178 889.746 513.851C889.635 509.636 889.468 505.199 889.246 500.539L870.922 498.376V490.223L906.737 476.078L910.236 478.408L909.569 510.024V541.474C909.569 546.577 909.625 552.623 909.736 559.611C909.847 566.489 909.958 572.868 910.069 578.747ZM1009.02 565.935V530.159C1004.91 531.157 1000.97 532.322 997.193 533.653C993.417 534.873 990.252 535.927 987.698 536.815C982.589 538.811 978.536 540.864 975.537 542.971C972.427 545.079 970.095 547.131 968.54 549.128C966.986 551.236 965.986 553.288 965.542 555.285C965.098 557.282 964.876 559.112 964.876 560.776C964.876 563.882 965.32 566.378 966.208 568.264C966.986 570.15 968.041 571.814 969.373 573.256C972.927 576.806 977.647 578.581 983.533 578.581C985.421 578.581 987.198 578.359 988.864 577.915C990.641 577.583 992.418 576.917 994.195 575.919C996.082 574.92 998.193 573.589 1000.52 571.925C1002.86 570.261 1005.69 568.264 1009.02 565.935ZM1046.34 575.253L1051 580.411C1048.33 585.403 1045.45 588.732 1042.34 590.396C1039.23 591.949 1035.79 592.725 1032.01 592.725C1025.46 592.725 1020.35 591.172 1016.68 588.066C1012.91 584.849 1010.46 580.578 1009.35 575.253C1006.24 578.359 1003.41 581.077 1000.86 583.407C998.193 585.736 995.527 587.678 992.862 589.231C990.196 590.784 987.476 591.949 984.699 592.725C981.923 593.502 978.813 593.89 975.37 593.89C971.15 593.89 967.152 593.28 963.376 592.06C959.6 590.839 956.269 588.953 953.381 586.402C950.494 583.961 948.217 580.911 946.551 577.25C944.885 573.589 944.052 569.374 944.052 564.603C944.052 561.275 944.608 558.058 945.718 554.952C946.829 551.846 948.772 548.906 951.549 546.133C954.325 543.249 958.268 540.364 963.376 537.48C968.374 534.596 974.871 531.767 982.867 528.994C986.421 527.663 990.474 526.387 995.027 525.167C999.692 523.835 1004.36 522.504 1009.02 521.173V515.016C1009.02 509.359 1008.58 504.699 1007.69 501.039C1006.8 497.378 1005.52 494.493 1003.86 492.386C1002.08 490.389 999.858 488.947 997.193 488.059C994.417 487.172 991.085 486.728 987.198 486.728C985.532 486.728 983.7 486.839 981.701 487.061C979.813 487.172 977.703 487.449 975.37 487.893L970.706 504.2C968.485 511.633 964.265 515.349 958.046 515.349C954.825 515.349 952.271 514.462 950.383 512.687C948.495 510.912 947.44 508.471 947.217 505.365C949.328 496.49 954.436 489.391 962.543 484.066C970.651 478.741 980.701 476.078 992.695 476.078C1004.91 476.078 1013.96 479.185 1019.85 485.397C1025.85 491.609 1028.84 502.148 1028.84 517.013V566.933C1028.84 576.03 1031.4 580.578 1036.51 580.578C1038.4 580.578 1040.01 580.19 1041.34 579.413C1042.78 578.526 1044.06 577.638 1045.17 576.751L1046.34 575.253Z" stroke="#005858" stroke-width="30" mask="url(#path-5-outside-1_1958_5262)"/>
<path d="M109.924 599.098C101.09 599.098 92.4842 597.421 84.107 594.067C75.7298 590.561 68.1904 585.454 61.4886 578.747C54.7869 572.04 49.4559 563.731 45.4958 553.823C41.688 543.762 39.7841 532.176 39.7841 519.066C39.7841 506.566 41.7641 495.361 45.7243 485.453C49.6844 475.544 54.9392 467.16 61.4886 460.3C68.1904 453.44 75.7298 448.257 84.107 444.751C92.4842 441.092 101.09 439.263 109.924 439.263C118.758 439.263 127.288 441.016 135.513 444.522C143.89 447.876 151.353 452.907 157.903 459.614C164.604 466.321 169.935 474.629 173.895 484.538C177.855 494.447 179.836 505.956 179.836 519.066C179.836 531.566 177.855 542.771 173.895 552.679C170.088 562.588 164.833 571.049 158.131 578.061C151.582 584.921 144.118 590.18 135.741 593.839C127.364 597.345 118.758 599.098 109.924 599.098ZM109.924 587.665C117.844 587.665 124.622 585.759 130.258 581.948C136.046 577.985 140.691 572.802 144.194 566.399C147.85 559.844 150.515 552.527 152.191 544.448C153.866 536.216 154.704 527.755 154.704 519.066C154.704 510.529 153.866 502.221 152.191 494.142C150.515 485.91 147.85 478.517 144.194 471.962C140.691 465.407 136.046 460.224 130.258 456.413C124.622 452.602 117.844 450.696 109.924 450.696C102.004 450.696 95.1497 452.602 89.3618 456.413C83.7263 460.224 79.0807 465.407 75.4252 471.962C71.7697 478.517 69.0281 485.91 67.2003 494.142C65.5249 502.221 64.6872 510.529 64.6872 519.066C64.6872 527.755 65.5249 536.216 67.2003 544.448C69.0281 552.527 71.7697 559.844 75.4252 566.399C79.0807 572.802 83.7263 577.985 89.3618 581.948C95.1497 585.759 102.004 587.665 109.924 587.665Z" fill="white"/>
<path d="M237.417 598.641C229.497 598.641 223.176 596.506 218.454 592.238C213.732 587.97 211.371 581.415 211.371 572.573C211.371 569.677 211.371 566.857 211.371 564.113C211.524 561.216 211.6 557.558 211.6 553.137V499.173H192.637V489.111L212.971 486.596L218.911 455.955H232.619L231.248 487.053H262.092V499.173H231.02V570.058C231.02 575.851 232.162 580.119 234.447 582.863C236.731 585.454 239.778 586.75 243.586 586.75C246.175 586.75 248.612 586.217 250.897 585.15C253.334 584.082 255.999 582.558 258.893 580.576L264.376 586.522C258.131 594.601 249.145 598.641 237.417 598.641Z" fill="white"/>
<path d="M327.478 598.641C318.644 598.641 310.191 596.583 302.118 592.467C294.198 588.198 287.725 581.872 282.698 573.488C277.672 564.951 275.159 554.433 275.159 541.932C275.159 529.28 277.672 518.685 282.698 510.148C287.725 501.459 294.198 494.98 302.118 490.712C310.191 486.291 318.644 484.081 327.478 484.081C336.312 484.081 344.69 486.291 352.61 490.712C360.682 494.98 367.232 501.459 372.258 510.148C377.437 518.685 380.026 529.28 380.026 541.932C380.026 554.433 377.437 564.951 372.258 573.488C367.232 581.872 360.682 588.198 352.61 592.467C344.69 596.583 336.312 598.641 327.478 598.641ZM327.478 588.351C337.379 588.351 344.994 584.464 350.325 576.689C355.656 568.762 358.322 557.177 358.322 541.932C358.322 526.536 355.656 514.798 350.325 506.718C344.994 498.639 337.379 494.599 327.478 494.599C317.578 494.599 309.962 498.639 304.631 506.718C299.453 514.798 296.863 526.536 296.863 541.932C296.863 557.177 299.453 568.762 304.631 576.689C309.962 584.464 317.578 588.351 327.478 588.351Z" fill="white"/>
<path d="M435.962 598.641C429.565 598.641 423.701 597.878 418.37 596.354C413.039 594.982 407.555 592.848 401.92 589.951L401.006 564.799H413.572L417.913 584.692C423.244 587.131 429.412 588.351 436.419 588.351C445.101 588.351 451.498 586.75 455.61 583.549C459.875 580.348 462.007 576.155 462.007 570.972C462.007 566.094 460.256 562.207 456.752 559.311C453.249 556.262 447.918 553.518 440.76 551.079L430.25 547.192C421.873 544.143 415.171 540.179 410.145 535.301C405.118 530.423 402.605 524.097 402.605 516.322C402.605 510.682 404.128 505.423 407.175 500.544C410.221 495.666 414.714 491.703 420.654 488.654C426.595 485.605 433.829 484.081 442.359 484.081C448.604 484.081 454.239 484.919 459.266 486.596C464.444 488.121 469.471 490.407 474.345 493.456L473.431 516.78H461.55L457.895 498.487C452.716 495.895 447.461 494.599 442.13 494.599C435.124 494.599 429.793 496.047 426.138 498.944C422.634 501.688 420.883 505.423 420.883 510.148C420.883 515.179 422.406 518.99 425.452 521.581C428.651 524.173 434.134 526.917 441.902 529.813L448.985 532.329C460.408 536.597 468.481 541.475 473.202 546.963C478.076 552.451 480.513 558.777 480.513 565.942C480.513 571.735 478.838 577.146 475.487 582.177C472.136 587.055 467.186 591.019 460.636 594.067C454.087 597.116 445.862 598.641 435.962 598.641Z" fill="white"/>
<path d="M550.332 598.641C534.644 598.641 522.154 593.534 512.863 583.32C503.572 573.107 498.926 559.234 498.926 541.704C498.926 529.661 501.363 519.371 506.237 510.834C511.264 502.145 517.813 495.514 525.886 490.941C533.958 486.367 542.564 484.081 551.703 484.081C558.557 484.081 564.878 485.377 570.666 487.968C576.454 490.56 581.251 494.142 585.059 498.715C588.867 503.136 591.228 508.167 592.142 513.807C591.076 519.6 587.572 522.496 581.632 522.496C577.824 522.496 574.93 521.505 572.95 519.523C571.123 517.389 569.828 514.722 569.066 511.52L564.954 496.429C562.822 495.666 560.689 495.209 558.557 495.057C556.577 494.752 554.597 494.599 552.617 494.599C542.869 494.599 534.796 498.41 528.399 506.032C522.154 513.654 519.032 524.783 519.032 539.417C519.032 553.747 522.459 564.722 529.313 572.344C536.167 579.967 544.925 583.778 555.587 583.778C562.136 583.778 568.153 582.329 573.636 579.433C579.119 576.384 583.612 572.04 587.115 566.399L592.827 569.372C589.629 578.823 584.45 586.064 577.291 591.095C570.133 596.125 561.146 598.641 550.332 598.641Z" fill="white"/>
<path d="M663.488 598.641C654.654 598.641 646.201 596.583 638.128 592.467C630.208 588.198 623.735 581.872 618.708 573.488C613.682 564.951 611.169 554.433 611.169 541.932C611.169 529.28 613.682 518.685 618.708 510.148C623.735 501.459 630.208 494.98 638.128 490.712C646.201 486.291 654.654 484.081 663.488 484.081C672.323 484.081 680.7 486.291 688.62 490.712C696.693 494.98 703.242 501.459 708.268 510.148C713.447 518.685 716.036 529.28 716.036 541.932C716.036 554.433 713.447 564.951 708.268 573.488C703.242 581.872 696.693 588.198 688.62 592.467C680.7 596.583 672.323 598.641 663.488 598.641ZM663.488 588.351C673.389 588.351 681.004 584.464 686.335 576.689C691.666 568.762 694.332 557.177 694.332 541.932C694.332 526.536 691.666 514.798 686.335 506.718C681.004 498.639 673.389 494.599 663.488 494.599C653.588 494.599 645.972 498.639 640.641 506.718C635.463 514.798 632.874 526.536 632.874 541.932C632.874 557.177 635.463 568.762 640.641 576.689C645.972 584.464 653.588 588.351 663.488 588.351Z" fill="white"/>
<path d="M732.043 650.318V642.315L750.321 639.114C750.473 632.864 750.549 626.614 750.549 620.364C750.702 614.266 750.778 608.168 750.778 602.071V536.673C750.778 530.423 750.702 525.24 750.549 521.124C750.549 517.008 750.397 512.664 750.092 508.09L732.043 506.032V498.029L764.029 484.081L767.456 486.367L768.827 501.23C779.641 489.797 791.141 484.081 803.326 484.081C811.551 484.081 818.938 486.367 825.487 490.941C832.037 495.514 837.215 502.069 841.023 510.606C844.983 518.99 846.963 529.127 846.963 541.018C846.963 552.756 844.907 562.969 840.795 571.658C836.682 580.195 831.047 586.826 823.888 591.552C816.882 596.278 808.885 598.641 799.899 598.641C794.72 598.641 789.541 597.574 784.363 595.439C779.336 593.305 774.386 589.418 769.512 583.778V601.842C769.512 607.94 769.512 614.037 769.512 620.135C769.665 626.385 769.817 632.635 769.969 638.885L790.76 642.315V650.318H732.043ZM797.842 497.115C794.339 497.115 790.303 498.029 785.734 499.858C781.164 501.535 775.986 504.813 770.198 509.691V573.945C774.462 578.061 778.651 581.034 782.763 582.863C786.876 584.692 791.065 585.607 795.329 585.607C803.859 585.607 811.17 582.177 817.262 575.317C823.355 568.457 826.401 557.634 826.401 542.847C826.401 528.213 823.736 516.932 818.405 509.005C813.074 501.078 806.22 497.115 797.842 497.115Z" fill="white"/>
<path d="M865.243 595.668V587.436L882.378 584.235C882.53 578.442 882.606 572.192 882.606 565.485C882.759 558.625 882.835 552.679 882.835 547.649V536.902C882.835 530.652 882.759 525.469 882.606 521.353C882.606 517.084 882.454 512.664 882.149 508.09L863.872 506.032V498.029L899.056 484.081L902.483 486.367L901.798 517.465V547.649C901.798 552.679 901.798 558.625 901.798 565.485C901.95 572.192 902.102 578.442 902.255 584.235L918.247 587.436V595.668H865.243ZM892.202 458.928C887.937 458.928 884.282 457.556 881.235 454.812C878.341 452.068 876.894 448.562 876.894 444.294C876.894 439.873 878.341 436.367 881.235 433.775C884.282 431.031 887.937 429.659 892.202 429.659C896.467 429.659 900.046 431.031 902.94 433.775C905.986 436.367 907.509 439.873 907.509 444.294C907.509 448.562 905.986 452.068 902.94 454.812C900.046 457.556 896.467 458.928 892.202 458.928Z" fill="white"/>
<path d="M1020.34 597.955C1014.86 597.955 1010.29 596.354 1006.63 593.153C1002.98 589.951 1000.69 585.683 999.777 580.348C993.532 586.445 988.049 591.019 983.327 594.067C978.605 597.116 972.894 598.641 966.192 598.641C957.815 598.641 950.58 596.278 944.487 591.552C938.547 586.674 935.577 579.509 935.577 570.058C935.577 565.637 936.567 561.521 938.547 557.71C940.68 553.899 944.487 550.164 949.971 546.506C955.454 542.847 963.298 539.188 973.503 535.53C977.006 534.31 981.042 533.015 985.612 531.643C990.181 530.271 994.751 529.051 999.32 527.984V522.267C999.32 511.139 997.645 503.746 994.294 500.087C990.943 496.429 985.459 494.599 977.844 494.599C976.168 494.599 974.265 494.675 972.132 494.828C970.152 494.98 967.944 495.361 965.507 495.971L961.166 510.834C959.033 518.151 955.073 521.81 949.285 521.81C942.888 521.81 939.309 518.685 938.547 512.435C940.68 503.746 945.706 496.886 953.626 491.855C961.699 486.672 971.523 484.081 983.099 484.081C995.131 484.081 1004.04 487.13 1009.83 493.227C1015.62 499.173 1018.51 509.386 1018.51 523.868V572.573C1018.51 577.451 1019.27 580.957 1020.8 583.092C1022.32 585.073 1024.3 586.064 1026.74 586.064C1028.72 586.064 1030.39 585.607 1031.76 584.692C1033.13 583.778 1034.43 582.558 1035.65 581.034L1040.22 586.064C1037.47 590.485 1034.43 593.61 1031.08 595.439C1027.88 597.116 1024.3 597.955 1020.34 597.955ZM955.911 566.628C955.911 572.726 957.662 577.07 961.166 579.662C964.669 582.253 969.01 583.549 974.188 583.549C976.473 583.549 978.605 583.244 980.586 582.634C982.718 582.024 985.231 580.881 988.125 579.204C991.019 577.375 994.751 574.784 999.32 571.43V536.444C995.36 537.512 991.476 538.731 987.668 540.103C983.86 541.323 980.738 542.39 978.301 543.304C971.751 545.896 966.877 548.564 963.679 551.308C960.48 554.051 958.348 556.719 957.282 559.311C956.368 561.902 955.911 564.341 955.911 566.628Z" fill="white"/>
</g>
<defs>
<clipPath id="clip0_1958_5262">
<rect width="1080" height="1080" rx="250" fill="white"/>
</clipPath>
</defs>
</svg>
