<svg width="776" height="227" viewBox="0 0 776 227" fill="none" xmlns="http://www.w3.org/2000/svg">
<path d="M250.931 71.0864C250.931 42.657 229.597 20.258 203.862 20.258C201.088 20.258 155.167 25.1398 155.167 71.0864C155.167 99.9945 176.406 121.628 202.236 121.628C204.915 121.628 250.931 116.937 250.931 71.0864ZM206.445 114.64C183.963 114.64 168.657 88.3164 168.657 63.7158C168.657 44.2842 178.797 27.15 200.036 27.15C222.613 27.15 237.25 53.4736 237.25 78.0742C237.25 98.1758 227.588 114.64 206.445 114.64ZM303.548 58.4511C303.835 56.7281 303.93 55.1008 304.887 53.4736C304.887 52.4206 303.93 51.942 303.93 51.942C294.459 52.8035 290.154 52.8035 284.606 52.8035C284.606 43.327 285.849 29.2559 285.849 29.2559C285.084 28.4901 284.223 28.4901 283.458 28.4901C278.196 34.712 273.221 36.7222 273.221 36.7222C273.221 36.7222 273.413 44.2842 273.413 48.1131C273.413 49.6447 273.412 52.8035 272.36 52.8035H262.793C262.506 54.6222 262.506 55.7709 261.645 57.6853C261.645 58.7383 262.506 59.0254 262.506 59.0254C262.506 59.0254 267.003 58.834 272.456 58.834C273.413 58.834 273.413 61.7057 273.413 66.7789V97.8886C273.413 111.96 277.718 121.628 286.232 121.628C296.851 118.277 300.678 116.65 308.714 112.343C308.714 110.237 307.566 108.897 306.705 108.61C300.965 111.003 297.903 112.343 292.163 112.343C284.51 112.343 284.51 96.5485 284.51 90.1351V58.7383L303.548 58.4511ZM381.23 86.2105C381.23 66.3961 366.497 50.6976 347.746 50.6976C327.656 53.9522 313.019 64.0987 313.019 86.2105C313.019 106.408 327.943 121.628 346.694 121.628C366.593 118.373 381.23 108.322 381.23 86.2105ZM349.564 115.789C334.066 115.789 325.36 98.3672 325.36 80.9458C325.36 67.449 330.622 56.3452 345.067 56.3452C360.566 56.3452 368.889 73.8624 368.889 91.1881C368.889 105.068 364.105 115.789 349.564 115.789ZM429.255 59.0254C429.733 60.4613 431.168 67.8319 431.455 69.4592C431.934 69.5549 432.603 69.7463 433.273 69.7463C434.23 69.7463 434.899 69.5549 435.473 69.172C435.952 63.7158 436.908 56.3452 437.578 54.1436C434.421 52.8035 425.715 50.6976 419.21 50.6976C408.973 50.6976 395.676 55.4837 395.676 69.4592C395.676 78.8399 402.755 84.4875 408.686 87.2635L418.731 92.1453C419.879 92.8154 429.829 96.3571 429.829 105.068C429.829 113.108 423.515 116.363 416.531 116.363C409.452 116.363 404.286 112.63 403.042 111.385C400.65 108.61 399.407 103.728 398.354 101.047C397.972 100.856 397.398 100.856 397.111 100.856C396.058 100.856 395.293 101.239 394.432 101.718C395.58 107.557 396.632 114.64 396.919 118.469C399.789 119.809 408.399 121.628 415.861 121.628C428.394 121.628 440.257 114.449 440.257 101.718C440.257 89.9437 428.872 83.9132 425.045 82.0945L414.522 77.1169C410.121 74.9153 406.008 70.7993 406.008 66.0132C406.008 59.0255 411.078 55.4837 417.679 55.4837C424.471 55.4837 428.394 58.1639 429.255 59.0254ZM487.134 50.6976C483.977 50.6976 453.937 55.2923 453.937 86.7849C453.937 105.355 463.695 121.628 484.838 121.628C490.004 121.628 495.17 119.426 495.744 119.043L508.755 110.237C508.755 108.227 507.511 107.557 507.511 107.557C499.379 111.003 494.787 112.63 487.803 112.63C471.636 112.63 465.034 96.8357 465.034 81.4244C465.034 69.7463 472.688 56.0581 481.968 56.0581C490.386 56.0581 495.552 60.6527 500.527 66.4918C507.128 64.8645 508.563 58.4511 508.563 58.4511C503.588 53.9522 496.796 50.6976 487.134 50.6976ZM583.184 86.2105C583.184 66.3961 568.451 50.6976 549.7 50.6976C529.61 53.9522 514.973 64.0987 514.973 86.2105C514.973 106.408 529.897 121.628 548.648 121.628C568.547 118.373 583.184 108.322 583.184 86.2105ZM551.614 115.789C536.02 115.789 527.314 98.3672 527.314 80.9458C527.314 67.449 532.576 56.3452 547.022 56.3452C562.52 56.3452 570.843 73.8624 570.843 91.1881C570.843 105.068 566.059 115.789 551.614 115.789ZM613.606 119.618C614.658 119.809 622.312 121.628 625.373 121.628C629.678 121.628 662.971 118.373 662.971 86.2105C662.971 67.5447 650.151 53.0907 637.81 50.6976C626.712 55.1008 624.991 55.7709 614.276 62.4714C613.893 55.1008 609.014 50.6976 606.909 50.6976C606.909 50.6976 601.552 54.4308 591.316 56.1538C591.316 56.1538 591.22 56.7281 591.22 57.3982C591.22 57.9725 591.22 58.834 591.794 59.7912C593.325 59.7912 595.142 59.5041 596.482 59.5041C601.839 59.5041 602.891 64.6731 602.891 78.2656V111.003C602.891 127.084 602.604 147.473 601.552 154.939C600.978 159.151 599.639 162.98 591.603 164.894C591.603 164.894 591.316 165.373 591.316 165.947C591.316 166.617 591.603 167.67 592.177 168.244C599.352 167.191 606.909 167.191 610.927 167.191C614.371 167.191 622.79 167.574 630.157 167.574C630.444 166.713 630.444 166.043 630.444 165.564C630.444 164.32 630.157 163.363 630.157 163.363C624.417 163.363 619.25 163.363 615.232 162.98C613.893 162.884 613.606 138.188 613.606 127.084V119.618ZM613.893 68.5019C618.102 64.8645 624.608 60.0784 631.018 60.0784C640.871 60.0784 651.777 74.5324 651.777 91.1881C651.777 104.302 643.741 115.789 631.974 115.789C628.722 115.789 613.606 111.29 613.606 108.322C613.606 97.3143 613.606 79.6057 613.893 68.5019ZM695.115 93.5811C695.115 87.8378 695.306 58.4511 696.741 50.1233C696.741 50.1233 696.358 48.5917 694.732 48.5917C691.001 50.4105 688.896 51.4634 684.4 53.0907C679.617 54.718 677.512 55.1008 673.207 56.0581C673.207 56.0581 672.824 56.7281 672.824 57.7811C672.824 58.3554 672.824 59.0255 673.207 59.5041C673.207 59.5041 676.364 59.7912 678.182 59.9827C684.878 60.6527 684.974 66.4918 684.974 77.1169V89.9437C684.974 95.3041 684.974 104.302 684.304 106.695C683.252 110.715 682.2 114.736 674.164 116.65C674.164 116.65 673.877 117.129 673.877 117.703C673.877 118.373 674.164 119.33 674.642 120C681.913 119.043 688.322 118.948 692.34 118.948C694.445 118.948 699.994 119.33 704.395 119.33C704.777 118.469 704.777 117.799 704.777 117.32C704.777 116.076 704.395 115.119 704.395 115.119C701.62 115.119 698.941 115.119 696.932 114.736C695.689 114.64 695.115 99.7074 695.115 93.5811ZM691.766 33.2762C694.732 32.2233 698.941 28.873 700.664 26.5756C699.802 23.6083 697.124 19.8751 694.062 17.5778C691.384 18.6307 687.079 21.8853 684.974 24.4698C686.218 27.6286 688.609 30.9789 691.766 33.2762ZM763.326 102.866C763.326 92.241 763.708 72.9052 763.708 70.1292C763.708 60.4613 758.925 50.6976 744.958 50.6976C743.618 50.6976 728.885 55.2923 726.494 56.8238C721.423 61.0356 719.51 63.8116 719.51 67.3533C719.51 70.0335 719.893 72.4266 724.867 72.4266C727.833 72.4266 730.607 71.3736 730.607 70.7036C730.607 67.8319 730.607 64.7688 732.425 61.1313C734.434 56.8238 741.992 56.0581 743.905 56.0581C748.689 56.0581 752.515 60.3656 752.515 70.7036V83.4346C735.104 86.7849 726.207 90.518 723.05 92.1453C719.893 93.5811 717.118 97.9844 717.118 103.536C717.118 114.736 726.207 121.628 731.277 121.628C740.27 118.948 746.297 115.693 752.611 111.768C752.994 115.789 755.864 120.383 759.977 121.628C760.743 120.958 764.761 117.799 774.71 116.076C774.71 116.076 774.997 115.597 774.997 114.64C774.997 114.066 774.997 113.108 774.423 112.438C772.797 112.438 770.788 112.63 769.64 112.63C764.282 112.63 763.326 107.269 763.326 102.866ZM737.591 113.587C732.616 113.587 729.077 106.599 729.077 102.866C729.077 98.5587 730.225 95.8785 732.616 94.6341C737.113 92.1453 742.47 89.5608 752.515 88.2207C752.515 98.5587 752.037 106.408 752.037 106.408C748.88 109.375 741.992 113.587 737.591 113.587Z" fill="#008080"/>
<path d="M183.157 194.081L179.998 194C178.63 194 177.433 194.072 176.407 194.216C176.299 194.072 176.245 193.919 176.245 193.757L176.299 193.541C177.001 193.379 177.487 193.199 177.757 193.001C178.045 192.785 178.189 192.551 178.189 192.299C178.189 192.047 178.063 191.543 177.811 190.787L176.218 186.737C175.246 186.683 174.085 186.656 172.735 186.656L168.874 186.737L168.199 188.465C167.299 190.697 166.849 192.281 166.849 193.217C167.263 193.235 167.893 193.244 168.739 193.244C168.775 193.37 168.793 193.514 168.793 193.676C168.793 193.838 168.775 193.973 168.739 194.081L165.877 194C164.743 194 163.753 194.072 162.907 194.216C162.799 194.09 162.745 193.937 162.745 193.757L162.799 193.541C163.717 193.289 164.383 192.893 164.797 192.353C165.229 191.813 165.868 190.589 166.714 188.681L173.383 173.561H173.815L180.025 189.437C180.133 189.779 180.412 190.445 180.862 191.435C181.33 192.407 181.627 192.983 181.753 193.163C182.257 193.217 182.725 193.244 183.157 193.244C183.211 193.37 183.238 193.514 183.238 193.676C183.238 193.838 183.211 193.973 183.157 194.081ZM169.279 185.684L172.735 185.792C173.977 185.792 175.021 185.765 175.867 185.711L172.735 177.449L169.279 185.684ZM207.828 174.479L211.932 174.56H215.388C217.584 174.56 219.312 175.028 220.572 175.964C221.832 176.9 222.462 178.367 222.462 180.365C222.462 182.345 221.787 183.839 220.437 184.847C219.087 185.855 217.323 186.359 215.145 186.359C214.479 186.359 213.975 186.35 213.633 186.332C213.543 186.224 213.498 186.071 213.498 185.873L213.633 185.333C213.867 185.351 214.335 185.36 215.037 185.36C216.477 185.36 217.674 184.937 218.628 184.091C219.6 183.227 220.086 182.093 220.086 180.689C220.086 179.267 219.654 178.052 218.79 177.044C217.944 176.018 216.891 175.505 215.631 175.505C214.371 175.505 213.408 175.541 212.742 175.613C212.634 175.919 212.553 176.594 212.499 177.638C212.445 178.682 212.418 181.481 212.418 186.035V189.356C212.418 190.832 212.463 192.047 212.553 193.001C213.399 193.109 214.551 193.163 216.009 193.163C216.081 193.343 216.117 193.523 216.117 193.703C216.117 193.865 216.081 193.991 216.009 194.081L211.338 194C209.97 194 208.719 194.072 207.585 194.216C207.495 194.108 207.45 193.955 207.45 193.757L207.477 193.541C208.413 193.325 209.025 192.992 209.313 192.542C209.547 192.182 209.7 191.732 209.772 191.192C209.988 189.554 210.096 187.34 210.096 184.55C210.096 178.592 209.934 175.559 209.61 175.451C209.268 175.361 208.674 175.316 207.828 175.316C207.792 175.19 207.774 175.046 207.774 174.884C207.774 174.722 207.792 174.587 207.828 174.479ZM233.619 181.877L232.566 181.904C232.476 181.814 232.431 181.679 232.431 181.499L232.485 181.175C233.709 181.013 234.708 180.761 235.482 180.419C235.734 180.311 235.887 180.257 235.941 180.257C236.139 180.257 236.364 180.617 236.616 181.337C236.868 182.039 237.021 182.741 237.075 183.443C238.425 182.039 239.649 180.977 240.747 180.257C241.467 180.257 242.061 180.473 242.529 180.905C242.997 181.319 243.231 181.841 243.231 182.471C243.231 183.191 242.592 183.551 241.314 183.551C241.044 182.597 240.585 182.12 239.937 182.12C239.505 182.12 238.605 182.867 237.237 184.361C237.129 185.729 237.075 187.907 237.075 190.895C237.075 192.389 237.192 193.145 237.426 193.163C237.84 193.217 238.569 193.244 239.613 193.244C239.667 193.37 239.694 193.514 239.694 193.676C239.694 193.838 239.667 193.973 239.613 194.081L236.589 194C235.113 194 233.808 194.072 232.674 194.216C232.584 194.108 232.539 193.955 232.539 193.757L232.566 193.541C233.52 193.361 234.132 193.082 234.402 192.704C234.6 192.416 234.744 191.957 234.834 191.327C234.924 190.679 234.969 189.419 234.969 187.547C234.969 185.675 234.96 184.64 234.942 184.442C234.942 184.244 234.933 183.983 234.915 183.659C234.897 183.335 234.861 183.092 234.807 182.93C234.753 182.768 234.672 182.588 234.564 182.39C234.384 182.048 234.069 181.877 233.619 181.877ZM265.082 187.412C265.082 191.408 262.76 193.784 258.116 194.54C256.208 194.54 254.597 193.865 253.283 192.515C251.987 191.147 251.339 189.446 251.339 187.412C251.339 183.38 253.67 180.995 258.332 180.257C260.222 180.257 261.815 180.95 263.111 182.336C264.425 183.722 265.082 185.414 265.082 187.412ZM258.71 193.379C261.302 193.379 262.598 191.723 262.598 188.411C262.598 186.539 262.166 184.901 261.302 183.497C260.438 182.093 259.295 181.391 257.873 181.391C256.451 181.391 255.416 181.85 254.768 182.768C254.138 183.668 253.823 184.964 253.823 186.656C253.823 188.33 254.264 189.869 255.146 191.273C256.028 192.677 257.216 193.379 258.71 193.379ZM275.312 182.039L274.367 182.093C274.295 181.967 274.259 181.805 274.259 181.607L274.286 181.364C275.546 181.148 276.482 180.842 277.094 180.446L277.418 180.257C277.688 180.257 277.994 180.491 278.336 180.959C278.678 181.409 278.867 181.967 278.903 182.633C279.929 181.985 280.676 181.544 281.144 181.31C281.63 181.076 282.467 180.725 283.655 180.257C284.969 180.509 286.139 181.319 287.165 182.687C288.209 184.037 288.731 185.612 288.731 187.412C288.731 188.438 288.569 189.365 288.245 190.193C287.921 191.003 287.489 191.66 286.949 192.164C286.409 192.65 285.851 193.064 285.275 193.406C284.699 193.748 284.105 194 283.493 194.162C282.449 194.414 281.666 194.54 281.144 194.54C280.64 194.54 279.848 194.405 278.768 194.135V195.647C278.768 200.453 278.876 202.865 279.092 202.883C279.632 202.937 280.64 202.964 282.116 202.964C282.152 203.09 282.17 203.234 282.17 203.396C282.17 203.558 282.152 203.693 282.116 203.801L278.228 203.72C276.68 203.72 275.42 203.792 274.448 203.936C274.34 203.828 274.286 203.675 274.286 203.477L274.34 203.261C275.078 203.081 275.573 202.829 275.825 202.505C276.095 202.181 276.266 201.767 276.338 201.263C276.518 200.003 276.608 197.051 276.608 192.407V185.819C276.608 184.379 276.518 183.389 276.338 182.849C276.176 182.309 275.834 182.039 275.312 182.039ZM278.768 191.867C278.768 192.137 279.281 192.461 280.307 192.839C281.333 193.199 282.053 193.379 282.467 193.379C283.619 193.379 284.573 192.893 285.329 191.921C286.085 190.949 286.463 189.716 286.463 188.222C286.463 186.71 286.022 185.324 285.14 184.064C284.258 182.786 283.322 182.147 282.332 182.147C281.342 182.147 280.172 182.714 278.822 183.848C278.786 185.342 278.768 188.015 278.768 191.867ZM312.186 187.412C312.186 191.408 309.864 193.784 305.22 194.54C303.312 194.54 301.701 193.865 300.387 192.515C299.091 191.147 298.443 189.446 298.443 187.412C298.443 183.38 300.774 180.995 305.436 180.257C307.326 180.257 308.919 180.95 310.215 182.336C311.529 183.722 312.186 185.414 312.186 187.412ZM305.814 193.379C308.406 193.379 309.702 191.723 309.702 188.411C309.702 186.539 309.27 184.901 308.406 183.497C307.542 182.093 306.399 181.391 304.977 181.391C303.555 181.391 302.52 181.85 301.872 182.768C301.242 183.668 300.927 184.964 300.927 186.656C300.927 188.33 301.368 189.869 302.25 191.273C303.132 192.677 304.32 193.379 305.814 193.379ZM329.435 181.931C328.895 181.463 328.202 181.229 327.356 181.229C325.61 181.229 324.737 181.931 324.737 183.335C324.737 183.785 324.899 184.217 325.223 184.631C325.565 185.027 325.979 185.342 326.465 185.576L328.571 186.575C330.623 187.565 331.649 188.888 331.649 190.544C331.649 191.768 331.163 192.74 330.191 193.46C329.219 194.18 328.067 194.54 326.735 194.54C326.033 194.54 325.295 194.468 324.521 194.324C323.765 194.198 323.225 194.063 322.901 193.919C322.847 193.109 322.685 191.984 322.415 190.544C322.613 190.418 322.775 190.355 322.901 190.355C323.045 190.355 323.144 190.373 323.198 190.409C323.558 191.489 323.873 192.182 324.143 192.488C324.341 192.686 324.692 192.902 325.196 193.136C325.7 193.37 326.294 193.487 326.978 193.487C327.68 193.487 328.283 193.298 328.787 192.92C329.291 192.542 329.543 191.975 329.543 191.219C329.543 190.715 329.444 190.337 329.246 190.085C329.048 189.833 328.877 189.644 328.733 189.518C328.607 189.374 328.454 189.248 328.274 189.14C328.112 189.032 327.968 188.951 327.842 188.897C327.734 188.825 327.617 188.762 327.491 188.708C327.383 188.636 327.32 188.6 327.302 188.6L325.277 187.628C323.531 186.8 322.658 185.603 322.658 184.037C322.658 182.759 323.144 181.814 324.116 181.202C325.088 180.572 326.186 180.257 327.41 180.257C328.004 180.257 328.67 180.338 329.408 180.5C330.164 180.644 330.731 180.797 331.109 180.959C330.983 181.391 330.839 182.399 330.677 183.983C330.587 184.055 330.461 184.091 330.299 184.091C330.155 184.091 330.011 184.073 329.867 184.037C329.723 183.137 329.579 182.435 329.435 181.931ZM348.98 192.596C350.456 192.596 351.761 192.2 352.895 191.408C353.147 191.498 353.291 191.687 353.327 191.975L350.411 194.027C349.979 194.369 349.016 194.54 347.522 194.54C346.028 194.54 344.759 193.874 343.715 192.542C342.671 191.192 342.149 189.491 342.149 187.439C342.149 185.387 342.716 183.767 343.85 182.579C344.984 181.391 346.334 180.617 347.9 180.257C349.268 180.257 350.474 180.716 351.518 181.634C352.148 182.174 352.589 182.876 352.841 183.74C352.895 183.956 353.147 184.073 353.597 184.091C353.705 184.217 353.759 184.352 353.759 184.496C353.759 184.622 353.741 184.757 353.705 184.901C350.537 185.639 347.423 186.152 344.363 186.44C344.363 188.744 345.002 190.472 346.28 191.624C347 192.272 347.9 192.596 348.98 192.596ZM350.681 184.361C350.771 184.307 350.816 184.244 350.816 184.172C350.816 184.082 350.699 183.83 350.465 183.416C350.249 182.984 349.862 182.534 349.304 182.066C348.746 181.58 348.161 181.337 347.549 181.337C346.937 181.337 346.487 181.427 346.199 181.607C345.191 182.291 344.615 183.533 344.471 185.333C345.443 185.333 346.55 185.234 347.792 185.036C349.034 184.82 349.997 184.595 350.681 184.361ZM375.753 187.277C375.753 189.671 375.798 191.084 375.888 191.516C376.032 192.326 376.401 192.731 376.995 192.731C377.211 192.731 377.535 192.722 377.967 192.704C378.039 192.83 378.075 192.983 378.075 193.163L378.048 193.433C376.824 193.649 375.924 193.946 375.348 194.324L375.024 194.54C374.754 194.54 374.439 194.288 374.079 193.784C373.719 193.28 373.539 192.713 373.539 192.083C372.135 192.983 370.461 193.802 368.517 194.54C367.203 194.27 366.033 193.46 365.007 192.11C363.981 190.742 363.468 189.167 363.468 187.385C363.468 186.233 363.693 185.207 364.143 184.307C364.593 183.389 365.124 182.696 365.736 182.228C366.348 181.742 367.014 181.337 367.734 181.013C368.85 180.509 369.759 180.257 370.461 180.257C370.533 180.257 371.577 180.401 373.593 180.689V175.775C373.593 174.137 373.404 173.138 373.026 172.778C372.828 172.58 372.567 172.463 372.243 172.427L371.271 172.319C371.199 172.175 371.163 172.067 371.163 171.995L371.271 171.644C372.045 171.5 372.792 171.311 373.512 171.077C374.232 170.807 375.015 170.393 375.861 169.835C376.077 169.835 376.221 169.925 376.293 170.105C375.933 171.473 375.753 177.197 375.753 187.277ZM365.736 186.359C365.736 187.997 366.15 189.455 366.978 190.733C367.824 191.993 368.76 192.623 369.786 192.623C370.83 192.623 372.099 192.065 373.593 190.949V183.2C373.593 182.696 372.981 182.273 371.757 181.931C370.533 181.571 369.678 181.391 369.192 181.391C368.436 181.391 367.671 181.913 366.897 182.957C366.123 183.983 365.736 185.117 365.736 186.359ZM415.691 194.081L411.263 194C409.319 194 407.708 194.072 406.43 194.216C406.34 194.108 406.295 193.955 406.295 193.757L406.322 193.541C407.564 193.343 408.383 193.091 408.779 192.785C409.175 192.461 409.436 191.939 409.562 191.219C409.814 189.887 409.94 187.655 409.94 184.523C409.94 181.391 409.904 179.204 409.832 177.962C409.76 176.72 409.67 175.946 409.562 175.64C409.112 175.55 408.563 175.505 407.915 175.505C406.403 175.505 405.224 175.703 404.378 176.099L403.19 179.069C402.776 179.069 402.47 178.997 402.272 178.853L402.704 174.668C402.704 174.47 402.857 174.371 403.163 174.371L407.915 174.56H414.53L419.714 174.371C420.038 174.371 420.2 174.47 420.2 174.668C419.912 176.252 419.768 177.701 419.768 179.015C419.624 179.087 419.444 179.123 419.228 179.123C419.012 179.123 418.841 179.087 418.715 179.015C418.391 177.233 418.211 176.261 418.175 176.099C417.275 175.703 416.042 175.505 414.476 175.505C413.774 175.505 413.207 175.55 412.775 175.64C412.721 175.802 412.649 176.549 412.559 177.881C412.487 179.213 412.451 180.923 412.451 183.011V187.844C412.451 189.842 412.595 191.579 412.883 193.055C413.711 193.181 414.647 193.244 415.691 193.244C415.745 193.388 415.772 193.55 415.772 193.73C415.772 193.892 415.745 194.009 415.691 194.081ZM434.796 194.081L432.528 194C431.124 194 429.855 194.072 428.721 194.216C428.631 194.108 428.586 193.955 428.586 193.757L428.613 193.541C429.351 193.379 429.846 193.136 430.098 192.812C430.368 192.47 430.566 191.921 430.692 191.165C430.836 190.391 430.908 187.565 430.908 182.687V175.775C430.908 174.137 430.719 173.138 430.341 172.778C430.143 172.58 429.891 172.463 429.585 172.427L428.613 172.319C428.559 172.229 428.532 172.121 428.532 171.995C428.532 171.851 428.559 171.734 428.613 171.644C429.891 171.41 430.881 171.122 431.583 170.78C432.051 170.546 432.582 170.231 433.176 169.835C433.356 169.835 433.5 169.925 433.608 170.105C433.248 172.355 433.068 176.576 433.068 182.768C435.354 181.508 437.181 180.671 438.549 180.257C439.719 180.257 440.601 180.689 441.195 181.553C441.789 182.417 442.086 183.578 442.086 185.036L442.032 188.492C442.032 191.57 442.167 193.136 442.437 193.19C442.707 193.226 443.238 193.244 444.03 193.244C444.102 193.37 444.138 193.487 444.138 193.595C444.138 193.703 444.102 193.865 444.03 194.081L441.546 194C440.052 194 438.864 194.072 437.982 194.216C437.874 194.072 437.82 193.919 437.82 193.757L437.874 193.541C438.612 193.379 439.107 193.136 439.359 192.812C439.611 192.488 439.755 192.101 439.791 191.651C439.845 191.201 439.872 190.292 439.872 188.924C439.872 187.556 439.863 186.71 439.845 186.386C439.845 186.044 439.818 185.612 439.764 185.09C439.728 184.55 439.647 184.145 439.521 183.875C439.413 183.587 439.269 183.29 439.089 182.984C438.729 182.426 438.09 182.147 437.172 182.147C436.254 182.147 435.237 182.516 434.121 183.254C433.959 183.344 433.752 183.479 433.5 183.659C433.248 183.821 433.104 183.911 433.068 183.929C433.05 184.829 433.041 185.783 433.041 186.791C433.041 190.949 433.149 193.064 433.365 193.136C433.599 193.208 434.076 193.244 434.796 193.244C434.85 193.37 434.877 193.514 434.877 193.676C434.877 193.838 434.85 193.973 434.796 194.081ZM460.608 192.596C462.084 192.596 463.389 192.2 464.523 191.408C464.775 191.498 464.919 191.687 464.955 191.975L462.039 194.027C461.607 194.369 460.644 194.54 459.15 194.54C457.656 194.54 456.387 193.874 455.343 192.542C454.299 191.192 453.777 189.491 453.777 187.439C453.777 185.387 454.344 183.767 455.478 182.579C456.612 181.391 457.962 180.617 459.528 180.257C460.896 180.257 462.102 180.716 463.146 181.634C463.776 182.174 464.217 182.876 464.469 183.74C464.523 183.956 464.775 184.073 465.225 184.091C465.333 184.217 465.387 184.352 465.387 184.496C465.387 184.622 465.369 184.757 465.333 184.901C462.165 185.639 459.051 186.152 455.991 186.44C455.991 188.744 456.63 190.472 457.908 191.624C458.628 192.272 459.528 192.596 460.608 192.596ZM462.309 184.361C462.399 184.307 462.444 184.244 462.444 184.172C462.444 184.082 462.327 183.83 462.093 183.416C461.877 182.984 461.49 182.534 460.932 182.066C460.374 181.58 459.789 181.337 459.177 181.337C458.565 181.337 458.115 181.427 457.827 181.607C456.819 182.291 456.243 183.533 456.099 185.333C457.071 185.333 458.178 185.234 459.42 185.036C460.662 184.82 461.625 184.595 462.309 184.361ZM482.63 181.931C482.09 181.463 481.397 181.229 480.551 181.229C478.805 181.229 477.932 181.931 477.932 183.335C477.932 183.785 478.094 184.217 478.418 184.631C478.76 185.027 479.174 185.342 479.66 185.576L481.766 186.575C483.818 187.565 484.844 188.888 484.844 190.544C484.844 191.768 484.358 192.74 483.386 193.46C482.414 194.18 481.262 194.54 479.93 194.54C479.228 194.54 478.49 194.468 477.716 194.324C476.96 194.198 476.42 194.063 476.096 193.919C476.042 193.109 475.88 191.984 475.61 190.544C475.808 190.418 475.97 190.355 476.096 190.355C476.24 190.355 476.339 190.373 476.393 190.409C476.753 191.489 477.068 192.182 477.338 192.488C477.536 192.686 477.887 192.902 478.391 193.136C478.895 193.37 479.489 193.487 480.173 193.487C480.875 193.487 481.478 193.298 481.982 192.92C482.486 192.542 482.738 191.975 482.738 191.219C482.738 190.715 482.639 190.337 482.441 190.085C482.243 189.833 482.072 189.644 481.928 189.518C481.802 189.374 481.649 189.248 481.469 189.14C481.307 189.032 481.163 188.951 481.037 188.897C480.929 188.825 480.812 188.762 480.686 188.708C480.578 188.636 480.515 188.6 480.497 188.6L478.472 187.628C476.726 186.8 475.853 185.603 475.853 184.037C475.853 182.759 476.339 181.814 477.311 181.202C478.283 180.572 479.381 180.257 480.605 180.257C481.199 180.257 481.865 180.338 482.603 180.5C483.359 180.644 483.926 180.797 484.304 180.959C484.178 181.391 484.034 182.399 483.872 183.983C483.782 184.055 483.656 184.091 483.494 184.091C483.35 184.091 483.206 184.073 483.062 184.037C482.918 183.137 482.774 182.435 482.63 181.931ZM501.338 194.081L498.908 194C497.648 194 496.46 194.072 495.344 194.216C495.236 194.072 495.182 193.919 495.182 193.757L495.236 193.541C496.01 193.361 496.532 193.082 496.802 192.704C497 192.416 497.153 192.074 497.261 191.678C497.369 191.264 497.423 190.094 497.423 188.168V185.576C497.423 184.46 497.369 183.686 497.261 183.254C497.171 182.822 497.027 182.534 496.829 182.39C496.631 182.246 496.37 182.156 496.046 182.12L495.047 182.039C494.993 181.967 494.966 181.85 494.966 181.688L495.047 181.337C495.983 181.139 496.739 180.941 497.315 180.743C497.909 180.527 498.602 180.221 499.394 179.825C499.592 179.825 499.727 179.933 499.799 180.149C499.583 181.373 499.475 184.289 499.475 188.897C499.475 189.725 499.502 190.643 499.556 191.651C499.628 192.641 499.718 193.145 499.826 193.163C500.096 193.217 500.6 193.244 501.338 193.244C501.392 193.37 501.419 193.514 501.419 193.676C501.419 193.838 501.392 193.973 501.338 194.081ZM498.8 176.747C498.152 176.297 497.693 175.703 497.423 174.965C497.639 174.713 497.927 174.452 498.287 174.182C498.665 173.894 498.989 173.696 499.259 173.588C499.943 174.092 500.384 174.695 500.582 175.397C500.078 176.045 499.484 176.495 498.8 176.747ZM518.817 181.931C518.277 181.463 517.584 181.229 516.738 181.229C514.992 181.229 514.119 181.931 514.119 183.335C514.119 183.785 514.281 184.217 514.605 184.631C514.947 185.027 515.361 185.342 515.847 185.576L517.953 186.575C520.005 187.565 521.031 188.888 521.031 190.544C521.031 191.768 520.545 192.74 519.573 193.46C518.601 194.18 517.449 194.54 516.117 194.54C515.415 194.54 514.677 194.468 513.903 194.324C513.147 194.198 512.607 194.063 512.283 193.919C512.229 193.109 512.067 191.984 511.797 190.544C511.995 190.418 512.157 190.355 512.283 190.355C512.427 190.355 512.526 190.373 512.58 190.409C512.94 191.489 513.255 192.182 513.525 192.488C513.723 192.686 514.074 192.902 514.578 193.136C515.082 193.37 515.676 193.487 516.36 193.487C517.062 193.487 517.665 193.298 518.169 192.92C518.673 192.542 518.925 191.975 518.925 191.219C518.925 190.715 518.826 190.337 518.628 190.085C518.43 189.833 518.259 189.644 518.115 189.518C517.989 189.374 517.836 189.248 517.656 189.14C517.494 189.032 517.35 188.951 517.224 188.897C517.116 188.825 516.999 188.762 516.873 188.708C516.765 188.636 516.702 188.6 516.684 188.6L514.659 187.628C512.913 186.8 512.04 185.603 512.04 184.037C512.04 182.759 512.526 181.814 513.498 181.202C514.47 180.572 515.568 180.257 516.792 180.257C517.386 180.257 518.052 180.338 518.79 180.5C519.546 180.644 520.113 180.797 520.491 180.959C520.365 181.391 520.221 182.399 520.059 183.983C519.969 184.055 519.843 184.091 519.681 184.091C519.537 184.091 519.393 184.073 519.249 184.037C519.105 183.137 518.961 182.435 518.817 181.931ZM566.324 194.081L563.165 194C561.797 194 560.6 194.072 559.574 194.216C559.466 194.072 559.412 193.919 559.412 193.757L559.466 193.541C560.168 193.379 560.654 193.199 560.924 193.001C561.212 192.785 561.356 192.551 561.356 192.299C561.356 192.047 561.23 191.543 560.978 190.787L559.385 186.737C558.413 186.683 557.252 186.656 555.902 186.656L552.041 186.737L551.366 188.465C550.466 190.697 550.016 192.281 550.016 193.217C550.43 193.235 551.06 193.244 551.906 193.244C551.942 193.37 551.96 193.514 551.96 193.676C551.96 193.838 551.942 193.973 551.906 194.081L549.044 194C547.91 194 546.92 194.072 546.074 194.216C545.966 194.09 545.912 193.937 545.912 193.757L545.966 193.541C546.884 193.289 547.55 192.893 547.964 192.353C548.396 191.813 549.035 190.589 549.881 188.681L556.55 173.561H556.982L563.192 189.437C563.3 189.779 563.579 190.445 564.029 191.435C564.497 192.407 564.794 192.983 564.92 193.163C565.424 193.217 565.892 193.244 566.324 193.244C566.378 193.37 566.405 193.514 566.405 193.676C566.405 193.838 566.378 193.973 566.324 194.081ZM552.446 185.684L555.902 185.792C557.144 185.792 558.188 185.765 559.034 185.711L555.902 177.449L552.446 185.684ZM575.425 182.039L574.48 182.093C574.408 181.967 574.372 181.805 574.372 181.607L574.399 181.364C575.659 181.148 576.595 180.842 577.207 180.446L577.531 180.257C577.801 180.257 578.107 180.491 578.449 180.959C578.791 181.409 578.98 181.967 579.016 182.633C580.042 181.985 580.789 181.544 581.257 181.31C581.743 181.076 582.58 180.725 583.768 180.257C585.082 180.509 586.252 181.319 587.278 182.687C588.322 184.037 588.844 185.612 588.844 187.412C588.844 188.438 588.682 189.365 588.358 190.193C588.034 191.003 587.602 191.66 587.062 192.164C586.522 192.65 585.964 193.064 585.388 193.406C584.812 193.748 584.218 194 583.606 194.162C582.562 194.414 581.779 194.54 581.257 194.54C580.753 194.54 579.961 194.405 578.881 194.135V195.647C578.881 200.453 578.989 202.865 579.205 202.883C579.745 202.937 580.753 202.964 582.229 202.964C582.265 203.09 582.283 203.234 582.283 203.396C582.283 203.558 582.265 203.693 582.229 203.801L578.341 203.72C576.793 203.72 575.533 203.792 574.561 203.936C574.453 203.828 574.399 203.675 574.399 203.477L574.453 203.261C575.191 203.081 575.686 202.829 575.938 202.505C576.208 202.181 576.379 201.767 576.451 201.263C576.631 200.003 576.721 197.051 576.721 192.407V185.819C576.721 184.379 576.631 183.389 576.451 182.849C576.289 182.309 575.947 182.039 575.425 182.039ZM578.881 191.867C578.881 192.137 579.394 192.461 580.42 192.839C581.446 193.199 582.166 193.379 582.58 193.379C583.732 193.379 584.686 192.893 585.442 191.921C586.198 190.949 586.576 189.716 586.576 188.222C586.576 186.71 586.135 185.324 585.253 184.064C584.371 182.786 583.435 182.147 582.445 182.147C581.455 182.147 580.285 182.714 578.935 183.848C578.899 185.342 578.881 188.015 578.881 191.867ZM599.069 182.039L598.124 182.093C598.052 181.967 598.016 181.805 598.016 181.607L598.043 181.364C599.303 181.148 600.239 180.842 600.851 180.446L601.175 180.257C601.445 180.257 601.751 180.491 602.093 180.959C602.435 181.409 602.624 181.967 602.66 182.633C603.686 181.985 604.433 181.544 604.901 181.31C605.387 181.076 606.224 180.725 607.412 180.257C608.726 180.509 609.896 181.319 610.922 182.687C611.966 184.037 612.488 185.612 612.488 187.412C612.488 188.438 612.326 189.365 612.002 190.193C611.678 191.003 611.246 191.66 610.706 192.164C610.166 192.65 609.608 193.064 609.032 193.406C608.456 193.748 607.862 194 607.25 194.162C606.206 194.414 605.423 194.54 604.901 194.54C604.397 194.54 603.605 194.405 602.525 194.135V195.647C602.525 200.453 602.633 202.865 602.849 202.883C603.389 202.937 604.397 202.964 605.873 202.964C605.909 203.09 605.927 203.234 605.927 203.396C605.927 203.558 605.909 203.693 605.873 203.801L601.985 203.72C600.437 203.72 599.177 203.792 598.205 203.936C598.097 203.828 598.043 203.675 598.043 203.477L598.097 203.261C598.835 203.081 599.33 202.829 599.582 202.505C599.852 202.181 600.023 201.767 600.095 201.263C600.275 200.003 600.365 197.051 600.365 192.407V185.819C600.365 184.379 600.275 183.389 600.095 182.849C599.933 182.309 599.591 182.039 599.069 182.039ZM602.525 191.867C602.525 192.137 603.038 192.461 604.064 192.839C605.09 193.199 605.81 193.379 606.224 193.379C607.376 193.379 608.33 192.893 609.086 191.921C609.842 190.949 610.22 189.716 610.22 188.222C610.22 186.71 609.779 185.324 608.897 184.064C608.015 182.786 607.079 182.147 606.089 182.147C605.099 182.147 603.929 182.714 602.579 183.848C602.543 185.342 602.525 188.015 602.525 191.867ZM628.545 194.081L625.575 194C624.027 194 622.686 194.072 621.552 194.216C621.462 194.108 621.417 193.955 621.417 193.757L621.444 193.541C622.29 193.379 622.848 193.136 623.118 192.812C623.406 192.488 623.613 191.939 623.739 191.165C623.883 190.391 623.955 187.565 623.955 182.687V175.775C623.955 174.137 623.766 173.138 623.388 172.778C623.19 172.58 622.938 172.463 622.632 172.427L621.66 172.319C621.606 172.229 621.579 172.121 621.579 171.995C621.579 171.851 621.606 171.734 621.66 171.644C622.938 171.41 623.928 171.122 624.63 170.78C625.098 170.546 625.629 170.231 626.223 169.835C626.403 169.835 626.547 169.925 626.655 170.105C626.277 172.463 626.088 176.684 626.088 182.768V185.927C626.088 190.661 626.205 193.064 626.439 193.136C626.763 193.208 627.465 193.244 628.545 193.244C628.581 193.37 628.599 193.514 628.599 193.676C628.599 193.838 628.581 193.973 628.545 194.081ZM644.012 194.081L641.582 194C640.322 194 639.134 194.072 638.018 194.216C637.91 194.072 637.856 193.919 637.856 193.757L637.91 193.541C638.684 193.361 639.206 193.082 639.476 192.704C639.674 192.416 639.827 192.074 639.935 191.678C640.043 191.264 640.097 190.094 640.097 188.168V185.576C640.097 184.46 640.043 183.686 639.935 183.254C639.845 182.822 639.701 182.534 639.503 182.39C639.305 182.246 639.044 182.156 638.72 182.12L637.721 182.039C637.667 181.967 637.64 181.85 637.64 181.688L637.721 181.337C638.657 181.139 639.413 180.941 639.989 180.743C640.583 180.527 641.276 180.221 642.068 179.825C642.266 179.825 642.401 179.933 642.473 180.149C642.257 181.373 642.149 184.289 642.149 188.897C642.149 189.725 642.176 190.643 642.23 191.651C642.302 192.641 642.392 193.145 642.5 193.163C642.77 193.217 643.274 193.244 644.012 193.244C644.066 193.37 644.093 193.514 644.093 193.676C644.093 193.838 644.066 193.973 644.012 194.081ZM641.474 176.747C640.826 176.297 640.367 175.703 640.097 174.965C640.313 174.713 640.601 174.452 640.961 174.182C641.339 173.894 641.663 173.696 641.933 173.588C642.617 174.092 643.058 174.695 643.256 175.397C642.752 176.045 642.158 176.495 641.474 176.747ZM660.654 180.257C662.4 180.257 663.84 180.779 664.974 181.823C664.92 182.129 664.731 182.453 664.407 182.795C664.101 183.137 663.75 183.353 663.354 183.443C662.778 182.759 662.202 182.237 661.626 181.877C661.05 181.517 660.339 181.337 659.493 181.337C658.665 181.337 657.909 181.886 657.225 182.984C656.541 184.064 656.199 185.189 656.199 186.359C656.199 187.511 656.343 188.546 656.631 189.464C656.937 190.382 657.45 191.156 658.17 191.786C658.89 192.416 659.763 192.731 660.789 192.731C661.833 192.731 663.156 192.389 664.758 191.705C664.92 191.795 665.001 191.975 665.001 192.245L662.382 194.027C662.202 194.135 661.869 194.243 661.383 194.351C660.897 194.477 660.501 194.54 660.195 194.54C658.161 194.54 656.613 193.874 655.551 192.542C654.489 191.21 653.958 189.536 653.958 187.52C653.958 186.332 654.174 185.279 654.606 184.361C655.038 183.425 655.542 182.714 656.118 182.228C656.694 181.724 657.324 181.31 658.008 180.986C659.106 180.5 659.988 180.257 660.654 180.257ZM683.944 184.172L683.863 190.76C683.863 192.074 684.286 192.731 685.132 192.731L686.104 192.704C686.176 192.794 686.212 192.938 686.212 193.136L686.158 193.433C684.772 193.685 683.782 194.054 683.188 194.54C682.792 194.432 682.45 194.189 682.162 193.811C681.892 193.415 681.739 193.001 681.703 192.569C680.263 193.451 678.832 194.108 677.41 194.54C676.798 194.54 676.168 194.198 675.52 193.514C674.872 192.812 674.548 191.939 674.548 190.895C674.548 190.373 674.665 189.905 674.899 189.491C675.133 189.059 675.412 188.762 675.736 188.6C677.068 187.934 679.048 187.349 681.676 186.845V184.28C681.676 183.29 681.514 182.552 681.19 182.066C680.884 181.58 680.506 181.337 680.056 181.337C679.624 181.337 679.156 181.418 678.652 181.58C678.148 181.724 677.788 182.012 677.572 182.444C677.374 182.876 677.275 183.488 677.275 184.28C677.275 184.352 677.149 184.433 676.897 184.523C676.663 184.595 676.357 184.631 675.979 184.631C675.619 184.631 675.367 184.55 675.223 184.388C675.097 184.208 675.034 183.947 675.034 183.605C675.034 182.957 675.502 182.255 676.438 181.499C676.654 181.355 677.284 181.112 678.328 180.77C679.39 180.428 680.002 180.257 680.164 180.257C681.46 180.257 682.414 180.635 683.026 181.391C683.638 182.147 683.944 183.074 683.944 184.172ZM676.951 190.76C676.951 191.192 677.122 191.66 677.464 192.164C677.806 192.668 678.193 192.92 678.625 192.92C679.075 192.92 679.588 192.767 680.164 192.461C680.74 192.155 681.217 191.831 681.595 191.489C681.649 190.427 681.676 189.203 681.676 187.817C680.164 188.015 678.832 188.447 677.68 189.113C677.194 189.347 676.951 189.896 676.951 190.76ZM699.203 188.195C699.203 191.183 699.716 192.677 700.742 192.677C701.498 192.677 702.479 192.425 703.685 191.921C703.955 192.011 704.09 192.263 704.09 192.677C702.776 193.379 701.264 194 699.554 194.54C698.708 194.54 698.06 194.108 697.61 193.244C697.178 192.38 696.962 191.219 696.962 189.761V183.497C696.962 182.435 696.899 181.904 696.773 181.904L694.775 181.931C694.649 181.895 694.586 181.805 694.586 181.661C694.676 181.481 694.757 181.157 694.829 180.689H696.746C696.89 180.689 696.962 180.374 696.962 179.744L696.935 177.449C697.601 177.179 698.285 176.621 698.987 175.775C699.203 175.775 699.365 175.829 699.473 175.937C699.311 177.827 699.23 179.411 699.23 180.689C700.544 180.689 701.84 180.626 703.118 180.5C703.244 180.572 703.307 180.68 703.307 180.824C703.199 181.004 703.109 181.337 703.037 181.823L699.203 181.877V188.195ZM718.707 194.081L716.277 194C715.017 194 713.829 194.072 712.713 194.216C712.605 194.072 712.551 193.919 712.551 193.757L712.605 193.541C713.379 193.361 713.901 193.082 714.171 192.704C714.369 192.416 714.522 192.074 714.63 191.678C714.738 191.264 714.792 190.094 714.792 188.168V185.576C714.792 184.46 714.738 183.686 714.63 183.254C714.54 182.822 714.396 182.534 714.198 182.39C714 182.246 713.739 182.156 713.415 182.12L712.416 182.039C712.362 181.967 712.335 181.85 712.335 181.688L712.416 181.337C713.352 181.139 714.108 180.941 714.684 180.743C715.278 180.527 715.971 180.221 716.763 179.825C716.961 179.825 717.096 179.933 717.168 180.149C716.952 181.373 716.844 184.289 716.844 188.897C716.844 189.725 716.871 190.643 716.925 191.651C716.997 192.641 717.087 193.145 717.195 193.163C717.465 193.217 717.969 193.244 718.707 193.244C718.761 193.37 718.788 193.514 718.788 193.676C718.788 193.838 718.761 193.973 718.707 194.081ZM716.169 176.747C715.521 176.297 715.062 175.703 714.792 174.965C715.008 174.713 715.296 174.452 715.656 174.182C716.034 173.894 716.358 173.696 716.628 173.588C717.312 174.092 717.753 174.695 717.951 175.397C717.447 176.045 716.853 176.495 716.169 176.747ZM742.396 187.412C742.396 191.408 740.074 193.784 735.43 194.54C733.522 194.54 731.911 193.865 730.597 192.515C729.301 191.147 728.653 189.446 728.653 187.412C728.653 183.38 730.984 180.995 735.646 180.257C737.536 180.257 739.129 180.95 740.425 182.336C741.739 183.722 742.396 185.414 742.396 187.412ZM736.024 193.379C738.616 193.379 739.912 191.723 739.912 188.411C739.912 186.539 739.48 184.901 738.616 183.497C737.752 182.093 736.609 181.391 735.187 181.391C733.765 181.391 732.73 181.85 732.082 182.768C731.452 183.668 731.137 184.964 731.137 186.656C731.137 188.33 731.578 189.869 732.46 191.273C733.342 192.677 734.53 193.379 736.024 193.379ZM752.868 181.877L751.815 181.904C751.743 181.814 751.707 181.697 751.707 181.553C751.707 181.409 751.725 181.283 751.761 181.175C752.985 181.013 753.984 180.761 754.758 180.419C755.01 180.311 755.163 180.257 755.217 180.257C755.379 180.257 755.577 180.509 755.811 181.013C756.045 181.517 756.243 182.075 756.405 182.687C758.223 181.661 759.996 180.851 761.724 180.257C762.822 180.257 763.668 180.698 764.262 181.58C764.856 182.444 765.153 183.596 765.153 185.036L765.099 188.6C765.099 191.606 765.234 193.136 765.504 193.19C765.774 193.226 766.278 193.244 767.016 193.244C767.088 193.37 767.124 193.505 767.124 193.649C767.124 193.793 767.088 193.937 767.016 194.081L764.532 194C763.038 194 761.85 194.072 760.968 194.216C760.878 194.108 760.833 193.955 760.833 193.757L760.86 193.541C761.382 193.415 761.787 193.244 762.075 193.028C762.363 192.794 762.543 192.578 762.615 192.38C762.705 192.164 762.777 191.849 762.831 191.435C762.885 191.003 762.912 190.175 762.912 188.951V186.71C762.912 185.45 762.768 184.388 762.48 183.524C762.354 183.182 762.21 182.93 762.048 182.768C761.652 182.336 761.175 182.12 760.617 182.12C760.059 182.12 759.501 182.228 758.943 182.444C758.385 182.66 757.962 182.858 757.674 183.038C757.386 183.218 756.981 183.488 756.459 183.848C756.387 185.27 756.351 187.178 756.351 189.572C756.351 191.948 756.468 193.154 756.702 193.19C756.954 193.226 757.413 193.244 758.079 193.244C758.151 193.37 758.187 193.505 758.187 193.649C758.187 193.793 758.151 193.937 758.079 194.081L755.784 194C754.416 194 753.228 194.072 752.22 194.216C752.13 194.108 752.085 193.955 752.085 193.757L752.112 193.541C752.634 193.415 753.039 193.244 753.327 193.028C753.615 192.794 753.795 192.578 753.867 192.38C753.957 192.164 754.029 191.777 754.083 191.219C754.155 190.643 754.191 189.419 754.191 187.547C754.191 185.675 754.182 184.64 754.164 184.442C754.164 184.226 754.155 183.956 754.137 183.632C754.119 183.308 754.083 183.065 754.029 182.903C753.975 182.741 753.894 182.57 753.786 182.39C753.606 182.048 753.3 181.877 752.868 181.877Z" fill="#008080"/>
<path d="M45.2219 224.565V215.053C45.2219 214.422 45.4724 213.817 45.9183 213.37C46.3642 212.924 46.969 212.674 47.5996 212.674H47.6027V84.2055H47.5996C46.969 84.2055 46.3642 83.9549 45.9183 83.5087C45.4724 83.0626 45.2219 82.4575 45.2219 81.8265V72.3138C45.2219 71.6828 45.4724 71.0777 45.9183 70.6316C46.3642 70.1854 46.969 69.9348 47.5996 69.9348H54.7324V53.2787H45.2219V0.944336H97.5328V5.7023H104.643C105.953 5.7023 107.021 6.77125 107.021 8.08128V46.1481C107.021 46.7791 106.771 47.3842 106.325 47.8303C105.879 48.2765 105.274 48.5271 104.643 48.5271H97.5328V53.2787H88.0223V69.9348H95.1552C96.4645 69.9348 97.5328 71.0037 97.5328 72.3138V81.8265C97.5328 82.4575 97.2823 83.0626 96.8364 83.5087C96.3905 83.9549 95.7858 84.2055 95.1552 84.2055H95.152V212.674H95.1552C96.4645 212.674 97.5328 213.743 97.5328 215.053V224.565C97.5328 225.196 97.2823 225.801 96.8364 226.248C96.3905 226.694 95.7858 226.944 95.1552 226.944H47.5996C46.969 226.944 46.3642 226.694 45.9183 226.248C45.4724 225.801 45.2219 225.196 45.2219 224.565ZM92.7776 222.186V217.432H49.9772V222.186H92.7776ZM90.3968 212.674V84.2055H52.358V212.674H90.3968ZM92.7776 79.4475V74.6927H49.9772V79.4475H92.7776ZM0.0471191 33.9963V20.2299C17.0963 19.6146 31.0957 12.5442 34.6526 3.32332H40.4667V50.9029H34.6526C31.0957 41.682 17.0963 34.6117 0.0471191 33.9963ZM102.266 43.7692V10.4603H97.5328V43.7692H102.266ZM35.7114 27.811V26.4153C35.7114 25.4891 34.9031 24.7341 33.9171 24.7341H8.96796C7.98204 24.7341 7.17998 25.4891 7.17998 26.4153V27.811C7.17998 28.7372 7.98204 29.4921 8.96796 29.4921H33.9171C34.9031 29.4921 35.7114 28.7372 35.7114 27.811Z" fill="#008080"/>
</svg>
